<?xml version="1.0" standalone="no"?>
<!DOCTYPE svg PUBLIC "-//W3C//DTD SVG 20010904//EN"
 "http://www.w3.org/TR/2001/REC-SVG-20010904/DTD/svg10.dtd">
<svg version="1.0" xmlns="http://www.w3.org/2000/svg"
 width="140.000000pt" height="98.000000pt" viewBox="0 0 140.000000 98.000000"
 preserveAspectRatio="xMidYMid meet">
<metadata>
Created by potrace 1.16, written by Peter Selinger 2001-2019
</metadata>
<g transform="translate(0.000000,98.000000) scale(0.100000,-0.100000)"
fill="currentColor" stroke="none">
<path d="M560 930 c0 -27 5 -50 10 -50 6 0 10 -4 10 -10 0 -5 -13 -10 -30 -10
-28 0 -30 -3 -30 -35 0 -19 5 -35 10 -35 6 0 10 -13 10 -29 0 -16 6 -31 13
-34 7 -2 0 -15 -20 -34 -27 -25 -33 -39 -33 -72 0 -23 5 -41 10 -41 6 0 10 -4
10 -10 0 -5 -13 -10 -30 -10 -16 0 -30 -4 -30 -10 0 -5 -25 -10 -55 -10 -48 0
-55 2 -55 20 0 19 -7 20 -105 20 -63 0 -105 -4 -105 -10 0 -5 -13 -10 -30 -10
-16 0 -30 -4 -30 -10 0 -5 -18 -10 -40 -10 -33 0 -40 -3 -40 -20 0 -11 5 -20
10 -20 6 0 10 -13 10 -30 0 -16 5 -30 10 -30 6 0 10 -13 10 -30 0 -16 5 -30
10 -30 6 0 10 -14 10 -31 0 -17 6 -37 14 -45 17 -16 46 -19 46 -4 0 6 9 10 20
10 11 0 20 5 20 10 0 6 16 10 35 10 19 0 35 5 35 10 0 6 9 10 20 10 11 0 20 5
20 11 0 18 27 39 50 39 34 0 50 24 50 74 l0 46 45 0 c25 0 45 5 45 10 0 6 14
10 30 10 29 0 30 -1 30 -50 0 -27 5 -50 10 -50 6 0 10 -25 10 -55 0 -30 5 -55
10 -55 6 0 10 -29 10 -66 0 -43 5 -70 14 -80 17 -16 56 -19 56 -4 0 6 33 10
80 10 73 0 80 -2 80 -20 0 -11 5 -20 10 -20 6 0 10 -20 10 -45 0 -25 -4 -45
-10 -45 -15 0 -12 -29 4 -46 19 -18 103 -18 122 0 28 29 8 86 -30 86 -10 0
-16 9 -16 25 0 14 -4 25 -10 25 -5 0 -10 14 -10 30 0 23 4 30 20 30 11 0 20 5
20 10 0 6 12 10 26 10 42 0 54 21 54 99 0 41 -4 71 -10 71 -6 0 -10 30 -10 70
0 40 -4 70 -10 70 -5 0 -10 20 -10 45 l0 45 40 0 c22 0 40 5 40 10 0 6 9 10
20 10 11 0 20 -4 20 -10 0 -5 5 -10 11 -10 11 0 39 -25 39 -35 0 -4 6 -13 14
-21 11 -11 45 -14 145 -14 l131 0 0 35 c0 19 -4 35 -10 35 -5 0 -10 9 -10 20
0 11 -4 20 -10 20 -5 0 -10 14 -10 30 0 17 -4 30 -10 30 -5 0 -10 8 -10 18 0
10 -9 24 -20 32 -11 8 -20 20 -20 27 0 7 -11 13 -25 13 -16 0 -25 -6 -25 -15
0 -11 -11 -15 -40 -15 -22 0 -40 -4 -40 -10 0 -5 -13 -10 -28 -10 -16 0 -34
-8 -42 -20 -8 -11 -20 -20 -27 -20 -7 0 -13 -7 -13 -16 0 -20 -24 -44 -44 -44
-9 0 -16 -4 -16 -10 0 -5 -18 -10 -40 -10 -38 0 -40 2 -40 30 0 17 -4 30 -10
30 -5 0 -10 7 -10 16 0 24 -25 44 -55 44 -27 0 -55 20 -55 39 0 6 -4 11 -10
11 -5 0 -10 12 -10 26 0 38 -22 54 -74 54 -35 0 -46 4 -46 16 0 18 -23 44 -39
44 -6 0 -11 5 -11 10 0 6 -9 10 -20 10 -17 0 -20 -7 -20 -50z m40 20 c0 -5 7
-10 15 -10 8 0 15 -9 15 -20 0 -11 5 -20 10 -20 6 0 10 -4 10 -10 0 -5 -16
-10 -35 -10 -34 0 -35 1 -35 40 0 22 5 40 10 40 6 0 10 -4 10 -10z m150 -90
c0 -17 -7 -20 -40 -20 -22 0 -40 -4 -40 -10 0 -5 -20 -10 -45 -10 -33 0 -45
-4 -45 -15 0 -8 -9 -15 -20 -15 -15 0 -20 7 -20 25 0 18 5 25 20 25 11 0 20 5
20 10 0 6 16 10 35 10 19 0 35 5 35 10 0 6 23 10 50 10 43 0 50 -3 50 -20z
m20 -55 c0 -8 5 -15 10 -15 6 0 10 -9 10 -20 0 -16 -7 -20 -30 -20 -16 0 -30
-4 -30 -10 0 -5 -22 -10 -50 -10 -27 0 -50 -4 -50 -10 0 -15 -39 -12 -56 4
-32 32 -4 66 55 66 30 0 41 4 41 15 0 11 12 15 50 15 38 0 50 -4 50 -15z m536
-29 c8 -8 14 -22 14 -30 0 -9 5 -16 10 -16 6 0 10 -13 10 -30 0 -16 5 -30 10
-30 6 0 10 -9 10 -20 0 -11 5 -20 10 -20 6 0 10 -11 10 -25 0 -18 -5 -25 -20
-25 -11 0 -20 7 -20 15 0 8 -4 15 -10 15 -5 0 -10 9 -10 20 0 11 -4 20 -10 20
-5 0 -10 9 -10 20 0 11 -7 20 -15 20 -10 0 -15 10 -15 30 0 17 -4 30 -10 30
-5 0 -10 9 -10 20 0 24 34 27 56 6z m-70 -20 c8 -8 14 -26 14 -40 0 -14 5 -26
10 -26 6 0 10 -9 10 -20 0 -11 7 -20 15 -20 8 0 15 -9 15 -20 0 -11 5 -20 10
-20 6 0 10 -7 10 -15 0 -12 -17 -15 -95 -15 -59 0 -95 4 -95 10 0 14 -46 60
-60 60 -5 0 -10 9 -10 20 0 11 7 20 15 20 8 0 15 7 15 16 0 23 25 44 54 44 14
0 26 5 26 10 0 15 49 12 66 -4z m-356 -26 c0 -11 5 -20 10 -20 6 0 10 -13 10
-30 0 -28 -3 -30 -35 -30 -34 0 -35 1 -35 40 0 22 -4 40 -10 40 -5 0 -10 -18
-10 -40 0 -22 5 -40 10 -40 6 0 10 -4 10 -10 0 -5 -9 -10 -20 -10 -11 0 -20
-4 -20 -10 0 -5 -9 -10 -20 -10 -13 0 -20 7 -20 20 0 11 -4 20 -10 20 -5 0
-10 18 -10 40 l0 40 40 0 c22 0 40 5 40 10 0 6 16 10 35 10 28 0 35 -4 35 -20z
m-170 -50 c0 -16 5 -30 10 -30 6 0 10 -9 10 -20 0 -17 -7 -20 -41 -20 -52 0
-48 -24 4 -28 29 -3 37 -7 37 -23 0 -10 5 -19 10 -19 6 0 10 -18 10 -40 l0
-40 -50 0 -50 0 0 60 c0 33 -4 60 -10 60 -6 0 -10 28 -10 65 l0 65 40 0 c38 0
40 -2 40 -30z m-110 -45 l0 -55 -40 0 -40 0 0 40 c0 49 15 69 53 70 26 0 27
-2 27 -55z m320 -49 c0 -26 5 -46 12 -48 9 -3 8 -9 -4 -21 -37 -37 -68 -9 -68
62 0 50 1 51 30 51 29 0 30 -2 30 -44z m-90 -21 c0 -33 4 -45 15 -45 8 0 15
-9 15 -20 0 -17 -7 -20 -45 -20 -43 0 -45 1 -45 30 0 17 -4 30 -10 30 -5 0
-10 9 -10 20 0 13 7 20 20 20 11 0 20 7 20 15 0 8 9 15 20 15 17 0 20 -7 20
-45z m-494 -19 c9 -9 14 -35 14 -70 0 -55 -1 -56 -28 -56 -16 0 -34 -8 -42
-20 -8 -12 -26 -20 -42 -20 -18 0 -28 -5 -28 -15 0 -9 -9 -15 -25 -15 -20 0
-25 5 -25 25 0 14 -4 25 -10 25 -5 0 -10 9 -10 20 0 11 -4 20 -10 20 -5 0 -10
9 -10 20 0 11 -4 20 -10 20 -5 0 -10 14 -10 30 0 23 4 30 20 30 11 0 20 5 20
10 0 17 179 13 196 -4z m294 -36 c0 -38 -4 -50 -15 -50 -8 0 -15 -4 -15 -10 0
-5 -13 -10 -30 -10 l-30 0 0 60 0 60 45 0 45 0 0 -50z m-550 -10 c0 -11 5 -20
10 -20 6 0 10 -9 10 -20 0 -11 5 -20 10 -20 6 0 10 -9 10 -20 0 -11 5 -20 10
-20 15 0 12 -60 -4 -76 -27 -26 -46 -17 -46 21 0 19 -4 35 -10 35 -5 0 -10 14
-10 30 0 17 -4 30 -10 30 -5 0 -10 14 -10 30 0 17 -4 30 -10 30 -5 0 -10 5
-10 10 0 6 14 10 30 10 23 0 30 -4 30 -20z m860 -50 c0 -43 -3 -50 -20 -50
-11 0 -20 -4 -20 -10 0 -5 -4 -10 -10 -10 -5 0 -10 23 -10 50 0 43 3 50 20 50
11 0 20 5 20 10 0 6 5 10 10 10 6 0 10 -22 10 -50z m-80 -45 c0 -30 5 -55 10
-55 6 0 10 -22 10 -50 0 -27 5 -50 10 -50 6 0 10 28 10 65 l0 65 30 0 30 0 0
-65 0 -65 -30 0 c-16 0 -30 -4 -30 -10 0 -5 -9 -10 -20 -10 -11 0 -20 -4 -20
-10 0 -5 -11 -10 -25 -10 -21 0 -25 5 -25 30 0 17 -4 30 -10 30 -5 0 -10 14
-10 30 0 28 3 30 35 30 19 0 35 5 35 10 0 6 -16 10 -35 10 -24 0 -35 5 -35 15
0 8 -4 15 -10 15 -5 0 -10 18 -10 40 l0 40 45 0 45 0 0 -55z m-210 -30 l0 -65
-31 0 c-41 0 -59 21 -59 69 0 34 3 41 20 41 11 0 20 5 20 10 0 6 11 10 25 10
24 0 25 -2 25 -65z m100 35 c0 -16 5 -30 10 -30 6 0 10 -11 10 -25 0 -23 -3
-25 -50 -25 l-50 0 0 55 0 55 40 0 c38 0 40 -2 40 -30z m20 -130 c0 -16 5 -30
10 -30 6 0 10 -9 10 -20 0 -17 -7 -20 -46 -20 -55 0 -74 16 -74 64 l0 36 50 0
c49 0 50 -1 50 -30z m-120 -20 c0 -16 5 -30 10 -30 6 0 10 -4 10 -10 0 -5 -9
-10 -20 -10 -11 0 -20 -4 -20 -10 0 -5 -11 -10 -25 -10 -23 0 -25 3 -25 50 l0
50 35 0 c32 0 35 -2 35 -30z m180 -90 c0 -11 7 -20 15 -20 9 0 15 -9 15 -25 0
-16 -6 -25 -15 -25 -9 0 -15 9 -15 25 0 14 -4 25 -10 25 -5 0 -10 9 -10 20 0
11 5 20 10 20 6 0 10 -9 10 -20z m90 -120 c0 -30 -1 -30 -55 -30 -43 0 -55 3
-55 15 0 28 24 44 68 45 40 0 42 -1 42 -30z"/>
</g>
</svg>
