<?xml version="1.0" standalone="no"?>
<!DOCTYPE svg PUBLIC "-//W3C//DTD SVG 20010904//EN"
 "http://www.w3.org/TR/2001/REC-SVG-20010904/DTD/svg10.dtd">
<svg version="1.0" xmlns="http://www.w3.org/2000/svg"
 width="61.000000pt" height="55.000000pt" viewBox="0 0 61.000000 55.000000"
 preserveAspectRatio="xMidYMid meet">
<metadata>
Created by potrace 1.16, written by Peter Selinger 2001-2019
</metadata>
<g transform="translate(0.000000,55.000000) scale(0.100000,-0.100000)"
fill="currentColor" stroke="none">
<path d="M250 540 c0 -5 -18 -10 -40 -10 -22 0 -40 -4 -40 -10 0 -5 -11 -10
-25 -10 -16 0 -25 -6 -25 -15 0 -8 -7 -15 -15 -15 -20 0 -65 -45 -65 -65 0 -8
-4 -15 -10 -15 -5 0 -10 -9 -10 -20 0 -11 -4 -20 -10 -20 -6 0 -10 -28 -10
-65 0 -37 4 -65 10 -65 6 0 10 -13 10 -30 0 -16 5 -30 10 -30 6 0 10 -9 10
-20 0 -11 5 -20 10 -20 6 0 10 -8 10 -18 0 -10 9 -24 20 -32 11 -8 20 -20 20
-27 0 -8 13 -13 35 -13 19 0 35 -4 35 -10 0 -5 18 -10 40 -10 22 0 40 -4 40
-10 0 -6 31 -10 73 -10 61 0 75 3 87 20 8 11 22 20 32 20 10 0 18 7 18 15 0 8
9 15 20 15 11 0 20 5 20 10 0 6 7 10 16 10 20 0 44 24 44 44 0 9 5 16 10 16 6
0 10 14 10 30 0 20 5 30 15 30 12 0 15 15 15 75 0 60 -3 75 -15 75 -8 0 -15 9
-15 20 0 11 -4 20 -10 20 -5 0 -10 7 -10 16 0 9 -13 29 -30 44 -16 15 -30 33
-30 39 0 6 -9 11 -20 11 -11 0 -20 5 -20 10 0 6 -9 10 -20 10 -11 0 -20 5 -20
10 0 6 -35 10 -85 10 -50 0 -85 -4 -85 -10z m60 -20 c0 -5 -4 -10 -10 -10 -5
0 -10 -6 -10 -13 0 -7 -9 -19 -20 -27 -43 -31 -13 -70 55 -70 59 0 75 -16 75
-74 0 -44 1 -46 30 -46 20 0 30 -5 30 -15 0 -8 7 -15 16 -15 26 0 44 -26 44
-64 0 -20 5 -36 10 -36 6 0 10 23 10 50 0 28 -4 50 -10 50 -5 0 -10 7 -10 15
0 8 -9 15 -20 15 -11 0 -20 5 -20 10 0 6 -13 10 -30 10 -29 0 -30 2 -30 46 0
62 -15 74 -89 74 -52 0 -61 3 -61 18 0 10 9 24 20 32 11 8 20 18 20 23 0 5 6
15 14 23 16 16 96 19 96 4 0 -5 9 -10 20 -10 11 0 20 -7 20 -15 0 -8 7 -15 15
-15 20 0 65 -45 65 -65 0 -8 5 -15 10 -15 6 0 10 -9 10 -20 0 -11 5 -20 10
-20 6 0 10 -32 10 -75 0 -43 -4 -75 -10 -75 -5 0 -10 -13 -10 -30 0 -16 -4
-30 -10 -30 -5 0 -10 -9 -10 -20 0 -13 -7 -20 -20 -20 -11 0 -20 -4 -20 -10 0
-5 -9 -10 -20 -10 -11 0 -20 -4 -20 -10 0 -5 -9 -10 -20 -10 -11 0 -20 -5 -20
-11 0 -27 -30 -39 -99 -39 -41 0 -71 4 -71 10 0 6 -18 10 -40 10 -29 0 -40 4
-40 15 0 9 -9 15 -25 15 -18 0 -25 5 -25 20 0 14 7 20 21 20 11 0 27 6 35 14
16 17 19 46 4 46 -5 0 -10 18 -10 40 0 22 5 40 10 40 6 0 10 20 10 45 0 25 -4
45 -10 45 -5 0 -10 9 -10 20 0 11 -7 20 -15 20 -8 0 -15 5 -15 10 0 6 -9 10
-20 10 -11 0 -20 5 -20 10 0 6 -9 10 -20 10 -11 0 -20 3 -20 6 0 11 29 34 44
34 9 0 16 5 16 10 0 6 11 10 25 10 16 0 25 6 25 15 0 11 11 15 40 15 22 0 40
5 40 10 0 6 14 10 30 10 17 0 30 -4 30 -10z m-210 -130 c0 -5 9 -10 20 -10 13
0 20 -7 20 -20 0 -11 7 -20 15 -20 11 0 15 -12 15 -45 0 -33 -4 -45 -15 -45
-11 0 -15 -11 -15 -40 0 -29 4 -40 15 -40 8 0 15 -9 15 -20 0 -14 -7 -20 -23
-20 -12 0 -29 -9 -37 -20 -18 -26 -30 -26 -30 0 0 11 -4 20 -10 20 -5 0 -10 9
-10 20 0 11 -4 20 -10 20 -5 0 -10 14 -10 30 0 17 -4 30 -10 30 -6 0 -10 28
-10 65 0 37 4 65 10 65 6 0 10 9 10 20 0 16 7 20 30 20 17 0 30 -4 30 -10z"/>
</g>
</svg>
