<?xml version="1.0" standalone="no"?>
<!DOCTYPE svg PUBLIC "-//W3C//DTD SVG 20010904//EN"
 "http://www.w3.org/TR/2001/REC-SVG-20010904/DTD/svg10.dtd">
<svg version="1.0" xmlns="http://www.w3.org/2000/svg"
 width="97.000000pt" height="150.000000pt" viewBox="0 0 97.000000 150.000000"
 preserveAspectRatio="xMidYMid meet">
<metadata>
Created by potrace 1.16, written by Peter Selinger 2001-2019
</metadata>
<g transform="translate(0.000000,150.000000) scale(0.100000,-0.100000)"
fill="currentColor" stroke="none">
<path d="M473 1485 c-7 -8 -13 -35 -13 -60 0 -38 -3 -45 -20 -45 -15 0 -20 -7
-20 -28 0 -16 8 -34 20 -42 11 -8 20 -23 20 -33 0 -27 25 -47 59 -47 17 0 31
-4 31 -10 0 -5 -4 -10 -10 -10 -5 0 -10 -13 -10 -30 0 -16 -4 -30 -10 -30 -5
0 -10 5 -10 10 0 16 -60 11 -77 -6 -14 -13 -14 -17 -2 -26 11 -7 11 -11 2 -15
-7 -2 -13 -16 -13 -29 0 -13 -4 -24 -10 -24 -6 0 -10 -33 -10 -80 0 -73 -2
-80 -20 -80 -11 0 -20 -4 -20 -10 0 -5 -9 -10 -20 -10 -11 0 -20 -4 -20 -10 0
-5 -25 -10 -55 -10 -42 0 -55 -3 -55 -15 0 -10 -10 -15 -30 -15 -16 0 -30 -4
-30 -10 0 -6 -27 -10 -61 -10 -39 0 -65 -5 -75 -14 -16 -17 -20 -126 -4 -126
6 0 10 -38 10 -95 0 -57 -4 -95 -10 -95 -17 0 -13 -239 4 -256 24 -23 83 -18
111 11 22 22 25 32 25 105 0 47 4 80 10 80 6 0 10 37 10 90 0 83 1 90 20 90
11 0 20 -4 20 -10 0 -5 16 -10 35 -10 19 0 35 -4 35 -10 0 -5 9 -10 20 -10 19
0 20 -7 20 -120 0 -115 1 -122 25 -145 30 -31 40 -31 70 0 23 22 25 32 25 115
0 53 4 90 10 90 6 0 10 -4 10 -10 0 -5 16 -10 35 -10 l35 0 0 -115 c0 -70 -4
-115 -10 -115 -6 0 -10 -44 -10 -111 0 -118 8 -139 50 -139 29 0 70 44 70 75
0 14 5 25 10 25 6 0 10 70 10 190 l0 190 45 0 c25 0 45 5 45 10 0 6 9 10 20
10 11 0 20 5 20 10 0 6 5 10 10 10 6 0 10 -32 10 -75 0 -43 -4 -75 -10 -75 -5
0 -10 -22 -10 -50 0 -27 -4 -50 -10 -50 -6 0 -10 -27 -10 -60 0 -51 4 -65 25
-85 47 -47 95 -25 95 44 0 23 5 41 10 41 6 0 10 37 10 90 0 53 4 90 10 90 6 0
10 42 10 105 0 87 3 105 15 105 9 0 15 9 15 25 0 14 5 25 10 25 6 0 10 14 10
30 0 17 -4 30 -10 30 -5 0 -10 -13 -10 -30 0 -20 -5 -30 -15 -30 -9 0 -15 -9
-15 -25 0 -18 -5 -25 -20 -25 -11 0 -20 -4 -20 -10 0 -5 -12 -10 -26 -10 -16
0 -37 -12 -54 -30 -15 -17 -35 -30 -44 -30 -9 0 -16 -4 -16 -10 0 -5 -20 -10
-45 -10 -25 0 -45 -4 -45 -10 0 -5 -9 -10 -20 -10 -11 0 -20 -4 -20 -10 0 -5
-4 -10 -10 -10 -5 0 -10 9 -10 20 0 11 5 20 10 20 6 0 10 18 10 40 0 34 3 40
21 40 11 0 17 5 14 10 -3 6 -26 10 -51 10 -32 0 -44 4 -44 15 0 11 -12 15 -45
15 -25 0 -45 5 -45 10 0 6 -9 10 -20 10 -11 0 -20 5 -20 10 0 6 -9 10 -20 10
-11 0 -20 5 -20 10 0 6 -13 10 -30 10 -16 0 -30 5 -30 10 0 6 -24 10 -53 10
-41 0 -56 4 -67 20 -8 12 -26 20 -42 20 -15 0 -28 5 -28 10 0 6 -9 10 -20 10
-11 0 -20 5 -20 10 0 6 14 10 30 10 17 0 30 5 30 10 0 6 14 10 30 10 17 0 30
5 30 10 0 6 25 10 55 10 42 0 55 3 55 15 0 8 9 15 20 15 11 0 20 5 20 10 0 6
9 10 20 10 16 0 20 -7 20 -30 0 -19 9 -40 25 -55 20 -21 34 -25 85 -25 48 0
60 3 60 16 0 8 6 22 14 30 17 16 46 19 46 4 0 -5 14 -10 30 -10 17 0 30 -4 30
-10 0 -5 20 -10 45 -10 25 0 45 -4 45 -10 0 -5 18 -10 40 -10 22 0 40 -4 40
-10 0 -5 14 -10 30 -10 23 0 30 -4 30 -20 0 -16 -7 -20 -30 -20 -16 0 -30 -4
-30 -10 0 -5 -9 -10 -20 -10 -11 0 -20 -4 -20 -10 0 -5 -9 -10 -20 -10 -11 0
-20 -4 -20 -10 0 -5 -20 -10 -45 -10 -25 0 -45 -4 -45 -10 0 -5 -9 -10 -20
-10 -11 0 -20 -7 -20 -15 0 -8 9 -15 20 -15 11 0 20 7 20 15 0 11 12 15 45 15
25 0 45 5 45 10 0 6 9 10 20 10 11 0 20 5 20 10 0 6 9 10 20 10 11 0 20 5 20
10 0 6 11 10 25 10 27 0 65 27 65 47 0 7 -7 13 -15 13 -8 0 -15 5 -15 10 0 6
-13 10 -30 10 -16 0 -30 5 -30 10 0 6 -18 10 -40 10 -22 0 -40 5 -40 10 0 6
-20 10 -45 10 -25 0 -45 5 -45 10 0 6 -13 10 -30 10 -20 0 -30 5 -30 15 0 8
-9 15 -20 15 -13 0 -20 7 -20 20 0 11 5 20 10 20 6 0 10 23 10 50 0 28 -4 50
-9 50 -5 0 -12 10 -16 23 -7 21 -8 20 -12 -8 -3 -16 0 -31 6 -33 14 -5 15 -82
1 -82 -5 0 -10 -18 -10 -41 0 -22 -6 -47 -14 -55 -24 -23 -83 -18 -111 11 -23
22 -25 31 -25 125 0 60 4 100 10 100 6 0 10 15 10 34 0 19 6 37 13 40 10 5 10
7 0 12 -25 11 -13 24 22 24 19 0 35 -4 35 -10 0 -5 9 -10 20 -10 11 0 20 -4
20 -10 0 -5 18 -10 40 -10 22 0 40 -4 40 -10 0 -5 -4 -10 -10 -10 -5 0 -10 -6
-10 -14 0 -8 -6 -16 -12 -19 -7 -2 -10 -8 -6 -12 8 -8 38 18 38 33 0 6 6 12
12 14 19 7 -16 38 -42 38 -12 0 -28 6 -36 14 -16 17 -19 46 -4 46 6 0 10 9 10
20 0 11 5 20 10 20 6 0 10 -4 10 -10 0 -5 23 -10 50 -10 43 0 50 3 50 20 0 11
-4 20 -10 20 -5 0 -10 -4 -10 -10 0 -15 -70 -12 -86 4 -8 8 -14 17 -14 20 0
12 79 6 84 -6 5 -10 7 -10 12 0 3 6 17 12 30 12 15 0 24 6 24 15 0 8 5 15 10
15 6 0 10 14 10 30 0 17 -4 30 -10 30 -5 0 -10 -13 -10 -30 0 -29 -2 -30 -45
-30 -34 0 -45 4 -45 16 0 20 24 44 44 44 9 0 16 5 16 10 0 6 7 10 15 10 11 0
15 11 15 40 0 29 -4 40 -15 40 -8 0 -15 5 -15 10 0 15 -70 12 -86 -4 -8 -8
-14 -22 -14 -30 0 -9 -4 -16 -10 -16 -5 0 -10 12 -10 26 0 14 -6 32 -14 40
-19 18 -67 18 -83 -1z m77 -65 c0 -33 -4 -60 -10 -60 -5 0 -10 5 -10 10 0 6
-11 10 -25 10 -23 0 -25 3 -25 50 l0 50 35 0 35 0 0 -60z m140 0 c0 -33 -3
-40 -20 -40 -11 0 -20 -4 -20 -10 0 -5 -13 -10 -30 -10 -16 0 -30 -4 -30 -10
0 -5 5 -10 10 -10 6 0 10 -9 10 -20 0 -13 -7 -20 -20 -20 -16 0 -20 7 -20 30
0 17 5 30 10 30 6 0 10 9 10 20 0 11 5 20 10 20 6 0 10 14 10 30 0 28 2 30 40
30 l40 0 0 -40z m-210 -50 c0 -5 9 -10 21 -10 19 0 49 -21 49 -34 0 -13 -82
-5 -96 9 -13 12 -13 17 -2 29 15 18 28 20 28 6z m70 -95 c0 -22 -4 -25 -35
-25 -31 0 -35 3 -35 25 0 22 4 25 35 25 31 0 35 -3 35 -25z m-470 -505 c8 -11
22 -20 32 -20 10 0 18 -4 18 -10 0 -5 13 -10 28 -10 16 0 34 -8 42 -20 11 -16
26 -20 67 -20 29 0 53 -4 53 -10 0 -5 14 -10 30 -10 17 0 30 -4 30 -10 0 -5 9
-10 20 -10 11 0 20 -4 20 -10 0 -5 9 -10 20 -10 11 0 20 -7 20 -15 0 -11 12
-15 45 -15 25 0 45 -4 45 -10 0 -5 9 -10 20 -10 16 0 20 -7 20 -36 0 -19 -6
-42 -14 -50 -17 -16 -46 -19 -46 -4 0 6 -16 10 -35 10 -19 0 -35 5 -35 10 0 6
-13 10 -30 10 -16 0 -30 5 -30 10 0 6 -9 10 -20 10 -11 0 -20 5 -20 10 0 6 -9
10 -20 10 -11 0 -20 5 -20 10 0 6 -9 10 -20 10 -11 0 -20 5 -20 10 0 6 -16 10
-35 10 -24 0 -35 5 -35 15 0 8 -9 15 -20 15 -11 0 -20 5 -20 10 0 6 -8 10 -18
10 -10 0 -24 9 -32 20 -9 12 -26 20 -43 20 -38 0 -57 21 -57 64 0 31 3 36 23
36 12 0 29 -9 37 -20z m10 -185 c0 -50 -4 -85 -10 -85 -6 0 -10 -35 -10 -85 0
-69 -3 -85 -15 -85 -11 0 -15 -12 -15 -50 0 -27 -4 -50 -10 -50 -6 0 -10 48
-10 125 0 77 4 125 10 125 6 0 10 38 10 95 0 95 0 95 25 95 25 0 25 -1 25 -85z
m40 55 c0 -5 9 -10 20 -10 11 0 20 -7 20 -15 0 -8 -4 -15 -10 -15 -6 0 -10
-37 -10 -90 0 -53 -4 -90 -10 -90 -6 0 -10 -34 -10 -81 0 -83 -11 -109 -44
-109 -12 0 -16 11 -16 50 0 28 5 50 10 50 6 0 10 35 10 85 0 50 4 85 10 85 6
0 10 32 10 75 0 43 4 75 10 75 6 0 10 -4 10 -10z m770 -155 c0 -57 -4 -95 -10
-95 -6 0 -10 -37 -10 -90 0 -53 -4 -90 -10 -90 -5 0 -10 -20 -10 -45 0 -25 -4
-45 -10 -45 -6 0 -10 32 -10 75 0 43 4 75 10 75 6 0 10 38 10 95 0 57 4 95 10
95 6 0 10 27 10 60 0 33 4 60 10 60 6 0 10 -38 10 -95z m-40 25 c0 -27 -4 -50
-10 -50 -6 0 -10 -38 -10 -95 0 -57 -4 -95 -10 -95 -6 0 -10 -32 -10 -75 0
-41 -3 -75 -6 -75 -3 0 -12 6 -20 14 -16 17 -20 136 -4 136 6 0 10 23 10 50 0
28 5 50 10 50 6 0 10 38 10 95 0 88 1 95 20 95 17 0 20 -7 20 -50z m-500 -85
c0 -70 -4 -115 -10 -115 -6 0 -10 45 -10 115 0 70 4 115 10 115 6 0 10 -45 10
-115z m46 81 c20 -20 20 -182 0 -202 -8 -8 -17 -14 -20 -14 -3 0 -6 52 -6 115
0 63 3 115 6 115 3 0 12 -6 20 -14z m184 -121 c0 -43 -4 -75 -10 -75 -6 0 -10
-45 -10 -115 0 -70 -4 -115 -10 -115 -5 0 -10 -13 -10 -30 0 -16 -4 -30 -10
-30 -6 0 -10 45 -10 115 0 70 4 115 10 115 6 0 10 42 10 105 0 98 1 105 20
105 18 0 20 -7 20 -75z m40 -105 c0 -113 -4 -180 -10 -180 -5 0 -10 -12 -10
-26 0 -23 -20 -54 -34 -54 -3 0 -6 14 -6 30 0 17 5 30 10 30 6 0 10 45 10 115
0 70 4 115 10 115 6 0 10 32 10 75 0 43 4 75 10 75 6 0 10 -67 10 -180z"/>
</g>
</svg>
