<?xml version="1.0" standalone="no"?>
<!DOCTYPE svg PUBLIC "-//W3C//DTD SVG 20010904//EN"
 "http://www.w3.org/TR/2001/REC-SVG-20010904/DTD/svg10.dtd">
<svg version="1.0" xmlns="http://www.w3.org/2000/svg"
 width="53.000000pt" height="88.000000pt" viewBox="0 0 53.000000 88.000000"
 preserveAspectRatio="xMidYMid meet">
<metadata>
Created by potrace 1.16, written by Peter Selinger 2001-2019
</metadata>
<g transform="translate(0.000000,88.000000) scale(0.100000,-0.100000)"
fill="currentColor" stroke="none">
<path d="M150 860 c0 -18 -80 -110 -95 -110 -12 0 -35 -29 -35 -44 0 -9 -4
-16 -10 -16 -5 0 -10 -20 -10 -45 0 -25 5 -45 10 -45 6 0 10 -18 10 -40 0 -22
5 -40 10 -40 6 0 10 -18 10 -41 0 -52 24 -48 28 4 2 28 -1 37 -12 37 -12 0
-16 10 -16 40 0 22 -4 40 -10 40 -5 0 -10 11 -10 25 0 22 4 25 35 25 24 0 35
-5 35 -15 0 -8 5 -15 10 -15 6 0 10 -27 10 -60 0 -33 4 -60 10 -60 6 0 10 -18
10 -40 0 -22 5 -40 10 -40 6 0 10 -20 10 -45 0 -25 5 -45 10 -45 6 0 10 -13
10 -30 0 -16 5 -30 10 -30 6 0 10 -18 10 -40 0 -22 5 -40 10 -40 6 0 10 -7 10
-15 0 -10 -10 -15 -30 -15 -25 0 -30 4 -30 25 0 14 -4 25 -10 25 -5 0 -10 9
-10 20 0 11 -4 20 -10 20 -6 0 -10 27 -10 60 0 33 -4 60 -10 60 -5 0 -10 16
-10 35 0 19 -4 35 -10 35 -5 0 -10 -16 -10 -35 0 -19 5 -35 10 -35 6 0 10 -27
10 -60 0 -33 4 -60 10 -60 6 0 10 -13 10 -30 0 -16 5 -30 10 -30 6 0 10 -14
10 -30 0 -23 11 -42 45 -75 24 -25 51 -45 60 -45 8 0 15 -4 15 -10 0 -5 16
-10 35 -10 19 0 35 -4 35 -10 0 -5 11 -10 26 -10 18 0 42 18 84 60 32 33 64
60 69 60 6 0 11 9 11 20 0 11 5 20 10 20 6 0 10 38 10 95 0 57 -4 95 -10 95
-5 0 -10 25 -10 55 0 42 -3 55 -15 55 -11 0 -15 11 -15 40 0 22 -4 40 -10 40
-5 0 -10 18 -10 40 0 22 -4 40 -10 40 -5 0 -10 -18 -10 -40 0 -22 5 -40 10
-40 6 0 10 -18 10 -40 0 -22 5 -40 10 -40 6 0 10 -25 10 -55 0 -42 3 -55 15
-55 12 0 15 -13 15 -60 0 -47 -3 -60 -15 -60 -8 0 -15 -4 -15 -10 0 -15 -29
-12 -46 4 -8 8 -14 31 -14 50 0 20 -4 36 -10 36 -5 0 -10 14 -10 30 0 17 -4
30 -10 30 -5 0 -10 16 -10 35 0 19 -4 35 -10 35 -5 0 -10 18 -10 40 0 22 -4
40 -10 40 -5 0 -10 18 -10 40 0 22 -4 40 -10 40 -5 0 -10 20 -10 45 0 25 -4
45 -10 45 -5 0 -10 5 -10 10 0 6 23 10 50 10 43 0 50 -3 50 -20 0 -11 5 -20
10 -20 6 0 10 -12 10 -26 0 -14 4 -23 10 -19 18 11 11 60 -10 75 -11 8 -20 20
-20 28 0 18 -46 62 -65 62 -8 0 -15 5 -15 10 0 6 -9 10 -20 10 -11 0 -20 5
-20 10 0 6 -16 10 -35 10 -24 0 -35 5 -35 15 0 8 -9 15 -20 15 -11 0 -20 5
-20 10 0 6 -4 10 -10 10 -5 0 -10 -9 -10 -20z m60 -48 c0 -10 9 -24 20 -32 12
-8 20 -26 20 -42 0 -24 -4 -28 -30 -28 -16 0 -30 -4 -30 -10 0 -5 -13 -10 -30
-10 -23 0 -30 4 -30 20 0 11 5 20 10 20 6 0 10 23 10 50 0 49 1 50 30 50 22 0
30 -5 30 -18z m70 -12 c0 -5 9 -10 20 -10 11 0 20 -4 20 -10 0 -5 7 -10 16
-10 15 0 44 -23 44 -34 0 -3 -22 -6 -50 -6 -43 0 -50 3 -50 20 0 11 -5 20 -11
20 -11 0 -39 24 -39 34 0 3 11 6 25 6 14 0 25 -4 25 -10z m-150 -38 c0 -16 -8
-34 -20 -42 -11 -8 -20 -22 -20 -32 0 -14 -8 -18 -35 -18 -19 0 -35 5 -35 10
0 6 5 10 10 10 6 0 10 9 10 20 0 11 6 20 13 20 6 0 23 14 37 30 31 37 40 37
40 2z m150 -72 c0 -11 5 -20 10 -20 6 0 10 -16 10 -35 0 -19 5 -35 10 -35 6 0
10 -18 10 -40 0 -22 5 -40 10 -40 6 0 10 -18 10 -40 0 -22 5 -40 10 -40 6 0
10 -16 10 -35 0 -19 5 -35 10 -35 6 0 10 -18 10 -40 0 -22 5 -40 10 -40 15 0
12 -70 -4 -86 -8 -8 -34 -14 -60 -14 -34 0 -46 -4 -46 -15 0 -9 -9 -15 -25
-15 -16 0 -25 6 -25 15 0 8 -4 15 -10 15 -5 0 -10 18 -10 40 0 22 -4 40 -10
40 -5 0 -10 14 -10 30 0 17 -4 30 -10 30 -5 0 -10 20 -10 45 0 25 -4 45 -10
45 -5 0 -10 18 -10 40 0 22 -4 40 -10 40 -6 0 -10 27 -10 60 0 33 -4 60 -10
60 -5 0 -10 11 -10 25 0 23 4 25 40 25 22 0 40 5 40 10 0 6 14 10 30 10 17 0
30 5 30 10 0 6 7 10 15 10 8 0 15 -9 15 -20z m230 -505 c0 -16 -6 -25 -15 -25
-8 0 -15 -7 -15 -15 0 -15 -42 -65 -55 -65 -3 0 -5 9 -5 20 0 11 5 20 10 20 6
0 10 16 10 35 0 28 4 35 20 35 11 0 20 5 20 10 0 6 7 10 15 10 9 0 15 -9 15
-25z m-90 -30 c0 -19 -4 -35 -10 -35 -5 0 -10 -13 -10 -30 0 -16 -4 -30 -10
-30 -5 0 -10 -9 -10 -20 0 -32 -28 -24 -70 20 -21 22 -41 40 -45 40 -8 0 -35
26 -35 34 0 3 11 6 25 6 14 0 25 5 25 10 0 6 23 10 50 10 38 0 50 4 50 15 0 8
9 15 20 15 16 0 20 -7 20 -35z m-190 -45 c15 -16 31 -30 35 -30 8 0 35 -26 35
-34 0 -3 -11 -6 -25 -6 -14 0 -25 5 -25 10 0 6 -7 10 -15 10 -14 0 -85 62 -85
75 0 3 12 5 26 5 16 0 37 -12 54 -30z"/>
</g>
</svg>
