<?xml version="1.0" standalone="no"?>
<!DOCTYPE svg PUBLIC "-//W3C//DTD SVG 20010904//EN"
 "http://www.w3.org/TR/2001/REC-SVG-20010904/DTD/svg10.dtd">
<svg version="1.0" xmlns="http://www.w3.org/2000/svg"
 width="105.000000pt" height="136.000000pt" viewBox="0 0 105.000000 136.000000"
 preserveAspectRatio="xMidYMid meet">
<metadata>
Created by potrace 1.16, written by Peter Selinger 2001-2019
</metadata>
<g transform="translate(0.000000,136.000000) scale(0.100000,-0.100000)"
fill="currentColor" stroke="none">
<path d="M123 1345 c-7 -8 -13 -30 -13 -50 0 -24 -4 -35 -15 -35 -8 0 -15 -9
-15 -20 0 -11 -4 -20 -10 -20 -5 0 -10 -25 -10 -55 0 -30 -4 -55 -10 -55 -6 0
-10 -30 -10 -70 0 -40 -4 -70 -10 -70 -5 0 -10 -20 -10 -45 0 -25 -4 -45 -10
-45 -6 0 -10 -41 -10 -103 0 -91 2 -104 20 -117 11 -8 20 -22 20 -32 0 -10 5
-18 10 -18 6 0 10 -9 10 -20 0 -11 5 -20 10 -20 6 0 10 -9 10 -20 0 -11 7 -20
15 -20 8 0 15 -7 15 -15 0 -8 5 -15 10 -15 6 0 10 -13 10 -30 0 -16 5 -30 10
-30 6 0 10 -7 10 -16 0 -8 18 -33 40 -54 22 -21 40 -46 40 -54 0 -9 5 -16 10
-16 6 0 10 -7 10 -15 0 -8 5 -15 10 -15 6 0 10 -7 10 -16 0 -15 23 -44 35 -44
11 0 35 -28 35 -40 0 -6 23 -33 50 -60 27 -27 50 -52 50 -55 0 -4 6 -13 14
-21 11 -10 43 -14 125 -14 67 0 111 -4 111 -10 0 -6 35 -10 85 -10 50 0 85 4
85 10 0 6 7 10 16 10 18 0 44 23 44 39 0 6 5 11 10 11 6 0 10 7 10 16 0 18 23
44 39 44 6 0 11 9 11 20 0 11 5 20 10 20 6 0 10 14 10 30 0 17 5 30 10 30 6 0
10 9 10 20 0 11 5 20 10 20 19 0 11 65 -10 80 -11 8 -20 22 -20 32 0 10 -4 18
-10 18 -5 0 -10 9 -10 20 0 11 -5 20 -10 20 -19 0 -60 48 -60 70 0 11 -4 20
-10 20 -5 0 -10 8 -10 18 0 10 -9 24 -20 32 -11 8 -20 22 -20 32 0 10 -4 18
-10 18 -5 0 -10 9 -10 20 0 11 -4 20 -10 20 -5 0 -10 9 -10 20 0 11 -4 20 -10
20 -5 0 -10 5 -10 10 0 19 -48 60 -70 60 -12 0 -20 7 -20 16 0 9 -14 29 -30
44 -16 15 -30 33 -30 40 0 7 -13 25 -30 40 -35 33 -37 41 -10 60 11 8 20 21
20 30 0 9 9 22 20 30 15 11 20 26 20 62 0 26 5 48 10 48 6 0 10 18 10 41 0 39
-17 69 -40 69 -17 0 -40 -26 -40 -44 0 -9 -4 -16 -10 -16 -5 0 -10 5 -10 10 0
6 -25 10 -55 10 -30 0 -55 5 -55 10 0 6 -52 10 -135 10 l-135 0 0 35 c0 25 -8
44 -25 60 -27 28 -44 31 -62 10z m53 -19 c16 -16 19 -86 4 -86 -5 0 -10 -9
-10 -20 0 -11 -4 -20 -10 -20 -5 0 -10 -20 -10 -45 0 -25 -4 -45 -10 -45 -6 0
-10 -27 -10 -60 0 -33 -4 -60 -10 -60 -6 0 -10 -35 -10 -85 0 -54 -4 -85 -11
-85 -23 0 -39 -30 -39 -75 0 -41 -16 -75 -34 -75 -3 0 -6 47 -6 105 0 63 4
105 10 105 6 0 10 20 10 45 0 25 5 45 10 45 6 0 10 30 10 70 0 40 4 70 10 70
6 0 10 25 10 55 0 42 3 55 15 55 8 0 15 9 15 20 0 11 5 20 10 20 6 0 10 18 10
40 0 43 18 53 46 26z m34 -96 c0 -6 52 -10 135 -10 83 0 135 -4 135 -10 0 -5
20 -10 45 -10 l45 0 0 -55 c0 -30 -4 -55 -10 -55 -5 0 -10 -13 -10 -30 0 -16
5 -30 10 -30 6 0 10 14 10 30 0 17 5 30 10 30 6 0 10 14 10 30 0 17 5 30 10
30 6 0 10 11 10 25 0 14 5 25 10 25 6 0 10 9 10 20 0 13 7 20 20 20 17 0 20
-7 20 -45 0 -25 -4 -45 -10 -45 -5 0 -10 -22 -10 -48 0 -36 -5 -51 -20 -62
-11 -8 -20 -20 -20 -28 0 -23 -27 -42 -59 -42 -17 0 -31 5 -31 10 0 6 7 10 15
10 8 0 15 5 15 10 0 14 -27 12 -34 -2 -5 -10 -7 -10 -12 0 -4 8 -35 12 -105
12 -93 0 -102 -2 -124 -25 -25 -24 -34 -65 -15 -65 6 0 10 -7 10 -16 0 -15 23
-44 35 -44 4 0 20 -13 35 -30 23 -25 36 -30 74 -30 25 0 46 5 46 10 0 6 27 10
61 10 82 0 117 35 69 70 -18 13 -29 50 -15 50 11 0 55 -49 55 -61 0 -6 14 -24
30 -39 57 -54 46 -60 -105 -60 -83 0 -135 -4 -135 -10 0 -5 -13 -10 -30 -10
-16 0 -30 -4 -30 -10 0 -5 -20 -10 -45 -10 -38 0 -45 3 -45 20 0 11 -4 20 -10
20 -5 0 -10 9 -10 20 0 11 -4 20 -10 20 -5 0 -10 7 -10 16 0 9 -13 29 -30 44
-16 15 -30 35 -30 44 0 11 9 16 30 16 20 0 30 5 30 15 0 10 -10 15 -30 15 -16
0 -30 -5 -30 -11 0 -11 -24 -39 -34 -39 -3 0 -6 16 -6 35 0 19 5 35 10 35 6 0
10 27 10 60 0 33 4 60 10 60 6 0 10 20 10 45 0 25 5 45 10 45 6 0 10 9 10 20
0 11 5 20 10 20 6 0 10 -4 10 -10z m296 -254 c8 -8 14 -19 14 -25 0 -6 7 -11
15 -11 8 0 15 -8 15 -18 0 -10 9 -24 20 -32 11 -8 20 -22 20 -32 0 -15 -9 -18
-65 -18 -37 0 -65 -4 -65 -10 0 -5 -21 -10 -46 -10 -38 0 -51 5 -74 30 -15 17
-33 30 -39 30 -6 0 -11 9 -11 20 0 11 -4 20 -10 20 -14 0 -12 38 3 55 17 20
203 21 223 1z m-356 -86 c0 -5 9 -10 20 -10 13 0 20 -7 20 -18 0 -10 9 -24 20
-32 11 -8 20 -22 20 -32 0 -10 5 -18 10 -18 6 0 10 -9 10 -20 0 -11 5 -20 10
-20 6 0 10 -11 10 -25 0 -14 5 -25 10 -25 6 0 10 -9 10 -20 0 -11 5 -20 10
-20 17 0 60 -47 60 -65 0 -8 5 -15 10 -15 6 0 10 -9 10 -20 0 -11 5 -20 10
-20 6 0 10 -6 10 -13 0 -7 9 -19 20 -27 11 -8 20 -21 20 -30 0 -9 9 -22 20
-30 11 -8 20 -20 20 -28 0 -20 47 -62 70 -62 11 0 20 -4 20 -10 0 -5 18 -10
40 -10 22 0 40 -4 40 -10 0 -6 67 -10 180 -10 113 0 180 4 180 10 0 6 -67 10
-180 10 -113 0 -180 4 -180 10 0 6 -18 10 -40 10 -22 0 -40 5 -40 10 0 6 -9
10 -21 10 -23 0 -49 22 -49 42 0 8 -9 20 -20 28 -11 8 -20 21 -20 30 0 9 -9
22 -20 30 -11 8 -20 20 -20 27 0 7 -4 13 -10 13 -5 0 -10 9 -10 20 0 11 -4 20
-10 20 -5 0 -10 7 -10 16 0 9 -14 29 -30 44 -17 15 -30 35 -30 44 0 9 -7 16
-15 16 -8 0 -15 5 -15 10 0 6 16 10 35 10 24 0 35 5 35 15 0 10 10 15 30 15
17 0 30 5 30 10 0 6 62 10 166 10 167 0 194 -6 194 -39 0 -6 5 -11 10 -11 6 0
10 -9 10 -20 0 -11 5 -20 10 -20 6 0 10 -9 10 -20 0 -11 5 -20 10 -20 6 0 10
-9 10 -20 0 -11 5 -20 10 -20 6 0 10 -8 10 -18 0 -10 9 -24 20 -32 11 -8 20
-24 20 -35 0 -11 9 -27 20 -35 11 -8 20 -20 20 -28 0 -16 24 -42 39 -42 6 0
11 -8 11 -18 0 -10 9 -24 20 -32 21 -15 29 -80 10 -80 -5 0 -10 -9 -10 -20 0
-11 -4 -20 -10 -20 -5 0 -10 -13 -10 -30 0 -20 -5 -30 -15 -30 -8 0 -15 -8
-15 -18 0 -10 -9 -24 -20 -32 -11 -8 -20 -22 -20 -32 0 -10 -4 -18 -10 -18 -5
0 -10 -7 -10 -15 0 -8 -9 -15 -20 -15 -11 0 -20 -4 -20 -10 0 -6 -35 -10 -85
-10 -50 0 -85 4 -85 10 0 6 -45 10 -115 10 -75 0 -115 4 -115 11 0 6 -23 32
-50 59 -28 27 -50 54 -50 60 0 14 -46 60 -60 60 -5 0 -10 9 -10 20 0 11 -4 20
-10 20 -5 0 -10 7 -10 15 0 8 -4 15 -10 15 -5 0 -10 7 -10 16 0 9 -14 29 -30
44 -17 15 -30 34 -30 42 0 7 -9 20 -20 28 -15 11 -20 26 -20 57 0 24 5 43 10
43 6 0 10 14 10 30 0 17 5 30 10 30 6 0 10 9 10 20 0 11 5 20 10 20 6 0 10 9
10 20 0 11 5 20 10 20 6 0 10 9 10 20 0 11 5 20 10 20 6 0 10 7 10 15 0 8 -4
15 -10 15 -5 0 -10 -7 -10 -15 0 -8 -4 -15 -10 -15 -5 0 -10 -9 -10 -20 0 -11
-4 -20 -10 -20 -5 0 -10 -9 -10 -20 0 -11 -4 -20 -10 -20 -5 0 -10 -9 -10 -20
0 -11 -4 -20 -10 -20 -5 0 -10 -13 -10 -30 0 -23 -4 -30 -20 -30 -13 0 -20 7
-20 20 0 11 -7 20 -15 20 -8 0 -15 9 -15 20 0 11 -4 20 -10 20 -5 0 -10 18
-10 40 0 22 5 40 10 40 6 0 10 25 10 55 0 32 4 55 11 55 21 0 39 29 39 64 0
20 5 36 10 36 6 0 10 -4 10 -10z"/>
</g>
</svg>
