<?xml version="1.0" standalone="no"?>
<!DOCTYPE svg PUBLIC "-//W3C//DTD SVG 20010904//EN"
 "http://www.w3.org/TR/2001/REC-SVG-20010904/DTD/svg10.dtd">
<svg version="1.0" xmlns="http://www.w3.org/2000/svg"
 width="96.000000pt" height="92.000000pt" viewBox="0 0 96.000000 92.000000"
 preserveAspectRatio="xMidYMid meet">
<metadata>
Created by potrace 1.16, written by Peter Selinger 2001-2019
</metadata>
<g transform="translate(0.000000,92.000000) scale(0.100000,-0.100000)"
fill="currentColor" stroke="none">
<path d="M390 910 c0 -5 -9 -10 -20 -10 -11 0 -20 -4 -20 -10 0 -5 -9 -10 -20
-10 -11 0 -20 -4 -20 -10 0 -5 9 -10 20 -10 11 0 20 5 20 10 0 6 14 10 30 10
17 0 30 5 30 10 0 18 45 10 60 -10 11 -15 26 -20 62 -20 36 0 48 -4 48 -15 0
-8 9 -15 20 -15 11 0 20 -4 20 -10 0 -5 16 -10 35 -10 19 0 35 -4 35 -10 0 -5
18 -10 40 -10 22 0 40 -4 40 -10 0 -5 18 -10 40 -10 22 0 40 -4 40 -10 0 -5
16 -10 35 -10 28 0 35 -4 35 -20 0 -16 -7 -20 -35 -20 -19 0 -35 -4 -35 -10 0
-5 -9 -10 -20 -10 -11 0 -20 -4 -20 -10 0 -5 -9 -10 -20 -10 -11 0 -20 -4 -20
-10 0 -5 -18 -10 -40 -10 -22 0 -40 -4 -40 -10 0 -5 -9 -10 -20 -10 -11 0 -20
-7 -20 -15 0 -12 -13 -15 -55 -15 -42 0 -55 3 -55 15 0 11 -11 15 -40 15 -22
0 -40 5 -40 10 0 6 -11 10 -25 10 -14 0 -25 5 -25 10 0 6 -9 10 -20 10 -11 0
-20 5 -20 10 0 6 -13 10 -30 10 -16 0 -30 5 -30 10 0 6 -22 10 -50 10 -27 0
-50 5 -50 10 0 6 -7 10 -15 10 -8 0 -15 5 -15 10 0 6 -13 10 -30 10 -16 0 -30
5 -30 10 0 6 -9 10 -20 10 -11 0 -20 5 -20 10 0 6 14 10 30 10 17 0 30 5 30
10 0 6 16 10 35 10 19 0 35 5 35 10 0 6 23 10 51 10 66 0 62 24 -4 28 -37 2
-47 0 -47 -12 0 -12 -10 -16 -35 -16 -19 0 -35 -4 -35 -10 0 -5 -25 -10 -56
-10 -35 0 -61 -5 -70 -14 -16 -17 -20 -126 -4 -126 6 0 10 -38 10 -95 0 -57
-4 -95 -10 -95 -17 0 -13 -239 4 -256 23 -22 74 -17 101 11 22 22 25 32 25
105 0 47 4 80 10 80 6 0 10 37 10 90 0 89 0 90 25 90 14 0 25 -4 25 -10 0 -5
14 -10 30 -10 17 0 30 -4 30 -10 0 -5 9 -10 20 -10 19 0 20 -7 20 -120 0 -115
1 -122 25 -145 29 -30 46 -31 65 -5 8 11 20 20 27 20 10 0 13 25 13 95 0 57 4
95 10 95 6 0 10 -4 10 -10 0 -5 14 -10 30 -10 l30 0 0 -115 c0 -70 -4 -115
-10 -115 -6 0 -10 -44 -10 -111 0 -118 8 -139 50 -139 29 0 70 44 70 75 0 16
6 25 15 25 13 0 15 28 15 190 l0 190 40 0 c22 0 40 5 40 10 0 6 9 10 20 10 11
0 20 5 20 10 0 6 5 10 10 10 6 0 10 -32 10 -75 0 -43 -4 -75 -10 -75 -5 0 -10
-22 -10 -50 0 -27 -4 -50 -10 -50 -6 0 -10 -27 -10 -60 0 -51 4 -65 25 -85 24
-25 75 -35 75 -15 0 6 7 10 15 10 11 0 15 12 15 45 0 25 5 45 10 45 6 0 10 37
10 90 0 53 4 90 10 90 6 0 10 42 10 105 0 63 4 105 10 105 6 0 10 11 10 25 0
14 5 25 10 25 6 0 10 14 10 30 0 17 -4 30 -10 30 -5 0 -10 7 -10 16 0 25 -26
44 -59 44 -17 0 -31 5 -31 10 0 6 -18 10 -40 10 -22 0 -40 5 -40 10 0 6 -18
10 -40 10 -22 0 -40 5 -40 10 0 6 -16 10 -35 10 -24 0 -35 5 -35 15 0 8 -9 15
-20 15 -11 0 -20 5 -20 10 0 6 -22 10 -48 10 -36 0 -51 5 -62 20 -15 21 -80
29 -80 10z m-320 -140 c8 -11 22 -20 32 -20 10 0 18 -4 18 -10 0 -5 14 -10 30
-10 17 0 30 -4 30 -10 0 -5 7 -10 15 -10 8 0 15 -4 15 -10 0 -5 23 -10 50 -10
28 0 50 -4 50 -10 0 -5 14 -10 30 -10 17 0 30 -4 30 -10 0 -5 9 -10 20 -10 11
0 20 -4 20 -10 0 -5 11 -10 25 -10 16 0 25 -6 25 -15 0 -11 11 -15 40 -15 22
0 40 -4 40 -10 0 -5 9 -10 20 -10 16 0 20 -7 20 -36 0 -19 -6 -42 -14 -50 -17
-16 -46 -19 -46 -4 0 6 -13 10 -30 10 -16 0 -30 5 -30 10 0 6 -16 10 -35 10
-19 0 -35 5 -35 10 0 6 -9 10 -20 10 -11 0 -20 5 -20 10 0 6 -9 10 -20 10 -11
0 -20 5 -20 10 0 6 -9 10 -20 10 -11 0 -20 5 -20 10 0 6 -13 10 -30 10 -20 0
-30 5 -30 15 0 9 -9 15 -25 15 -14 0 -25 5 -25 10 0 6 -8 10 -18 10 -10 0 -24
9 -32 20 -8 11 -25 20 -38 20 -33 0 -52 23 -52 64 0 28 4 36 18 36 10 0 24 -9
32 -20z m870 -90 c0 -16 -4 -30 -10 -30 -5 0 -10 -11 -10 -25 0 -18 -5 -25
-20 -25 -11 0 -20 -4 -20 -10 0 -5 -14 -10 -31 -10 -22 0 -40 -9 -59 -30 -15
-16 -35 -30 -44 -30 -9 0 -16 -4 -16 -10 0 -5 -18 -10 -40 -10 -22 0 -40 -4
-40 -10 0 -5 -11 -10 -25 -10 -14 0 -25 -4 -25 -10 0 -5 5 -10 10 -10 6 0 10
-67 10 -180 0 -113 -4 -180 -10 -180 -5 0 -10 -12 -10 -26 0 -23 -20 -54 -34
-54 -3 0 -6 14 -6 30 0 17 5 30 10 30 6 0 10 45 10 115 0 70 4 115 10 115 6 0
10 32 10 75 0 43 -4 75 -10 75 -5 0 -10 9 -10 20 0 11 5 20 10 20 6 0 10 18
10 40 0 36 3 40 25 40 14 0 25 5 25 10 0 6 9 10 20 10 11 0 20 7 20 15 0 11
11 15 40 15 22 0 40 5 40 10 0 6 9 10 20 10 11 0 20 5 20 10 0 6 9 10 20 10
11 0 20 5 20 10 0 6 16 10 35 10 19 0 35 5 35 10 0 6 5 10 10 10 6 0 10 -13
10 -30z m-860 -95 c0 -50 -4 -85 -10 -85 -6 0 -10 -35 -10 -85 0 -50 -4 -85
-10 -85 -5 0 -10 -22 -10 -50 0 -27 -4 -50 -10 -50 -6 0 -10 48 -10 125 0 77
4 125 10 125 6 0 10 38 10 95 0 88 1 95 20 95 18 0 20 -7 20 -85z m40 55 c0
-5 9 -10 20 -10 11 0 20 -7 20 -15 0 -8 -4 -15 -10 -15 -6 0 -10 -37 -10 -90
0 -53 -4 -90 -10 -90 -6 0 -10 -34 -10 -81 0 -83 -11 -109 -44 -109 -12 0 -16
11 -16 50 0 28 5 50 10 50 6 0 10 35 10 85 0 50 4 85 10 85 6 0 10 32 10 75 0
43 4 75 10 75 6 0 10 -4 10 -10z m780 -155 c0 -57 -4 -95 -10 -95 -6 0 -10
-37 -10 -90 0 -73 -3 -90 -15 -90 -11 0 -15 -12 -15 -45 0 -25 -4 -45 -10 -45
-6 0 -10 32 -10 75 0 43 4 75 10 75 6 0 10 38 10 95 0 78 3 95 15 95 12 0 15
13 15 60 0 33 4 60 10 60 6 0 10 -38 10 -95z m-50 25 c0 -27 -4 -50 -10 -50
-6 0 -10 -38 -10 -95 0 -57 -4 -95 -10 -95 -6 0 -10 -32 -10 -75 0 -41 -3 -75
-6 -75 -3 0 -12 6 -20 14 -16 17 -20 136 -4 136 6 0 10 23 10 50 0 28 5 50 10
50 6 0 10 38 10 95 0 88 1 95 20 95 17 0 20 -7 20 -50z m-500 -85 c0 -70 -4
-115 -10 -115 -6 0 -10 45 -10 115 0 70 4 115 10 115 6 0 10 -45 10 -115z m46
81 c20 -20 20 -182 0 -202 -8 -8 -17 -14 -20 -14 -3 0 -6 52 -6 115 0 63 3
115 6 115 3 0 12 -6 20 -14z m184 -121 c0 -43 -4 -75 -10 -75 -6 0 -10 -45
-10 -115 0 -70 -4 -115 -10 -115 -5 0 -10 -13 -10 -30 0 -16 -4 -30 -10 -30
-6 0 -10 45 -10 115 0 70 4 115 10 115 6 0 10 42 10 105 0 98 1 105 20 105 18
0 20 -7 20 -75z"/>
</g>
</svg>
