<?xml version="1.0" standalone="no"?>
<!DOCTYPE svg PUBLIC "-//W3C//DTD SVG 20010904//EN"
 "http://www.w3.org/TR/2001/REC-SVG-20010904/DTD/svg10.dtd">
<svg version="1.0" xmlns="http://www.w3.org/2000/svg"
 width="130.000000pt" height="105.000000pt" viewBox="0 0 130.000000 105.000000"
 preserveAspectRatio="xMidYMid meet">
<metadata>
Created by potrace 1.16, written by Peter Selinger 2001-2019
</metadata>
<g transform="translate(0.000000,105.000000) scale(0.100000,-0.100000)"
fill="currentColor" stroke="none">
<path d="M840 1035 c0 -8 -9 -15 -20 -15 -11 0 -20 -4 -20 -10 0 -5 -7 -10
-16 -10 -8 0 -33 -18 -54 -40 -21 -22 -41 -40 -44 -40 -16 0 -96 -92 -96 -110
0 -11 -4 -20 -10 -20 -5 0 -10 -9 -10 -20 0 -11 -4 -20 -10 -20 -5 0 -10 -9
-10 -20 0 -11 -4 -20 -10 -20 -5 0 -10 -13 -10 -30 0 -16 -4 -30 -10 -30 -5 0
-10 5 -10 10 0 6 -25 10 -55 10 -30 0 -55 5 -55 10 0 6 -30 10 -70 10 -40 0
-70 -4 -70 -10 0 -5 -20 -10 -45 -10 -25 0 -45 -4 -45 -10 0 -5 -9 -10 -20
-10 -11 0 -20 -4 -20 -10 0 -5 -13 -10 -28 -10 -16 0 -34 -8 -42 -20 -8 -11
-20 -20 -27 -20 -7 0 -13 -7 -13 -15 0 -8 -4 -15 -10 -15 -5 0 -10 -9 -10 -20
0 -11 5 -20 10 -20 6 0 10 -27 10 -60 0 -36 4 -60 11 -60 11 0 39 -25 39 -34
0 -8 168 -176 175 -176 8 0 55 -47 55 -55 0 -11 68 -74 74 -68 3 3 -8 18 -24
33 -17 16 -30 31 -30 34 0 8 -67 76 -75 76 -8 0 -35 27 -35 34 0 3 9 6 20 6
21 0 130 -101 130 -120 0 -5 5 -10 10 -10 22 0 7 23 -55 85 -37 37 -73 65 -85
65 -11 0 -20 5 -20 10 0 6 5 10 10 10 18 0 11 35 -10 50 -11 8 -20 18 -20 23
0 4 -12 20 -26 34 -20 20 -28 23 -34 13 -7 -11 -12 -10 -26 4 -14 14 -15 20
-4 26 9 6 4 17 -23 44 -20 20 -41 36 -47 36 -5 0 -10 9 -10 20 0 11 7 20 15
20 8 0 15 7 15 15 0 8 9 15 20 15 11 0 20 5 20 10 0 6 9 10 20 10 11 0 20 5
20 10 0 6 9 10 20 10 11 0 20 5 20 10 0 6 20 10 45 10 25 0 45 5 45 10 0 6 30
10 70 10 40 0 70 -4 70 -10 0 -5 25 -10 55 -10 30 0 55 -4 55 -10 0 -5 7 -10
15 -10 15 0 65 -42 65 -55 0 -10 89 -95 100 -95 5 0 10 -7 10 -16 0 -9 14 -29
30 -44 17 -15 30 -36 30 -47 0 -10 9 -25 20 -33 11 -8 20 -21 20 -30 0 -9 9
-22 20 -30 11 -8 20 -18 20 -22 0 -4 -61 -8 -135 -8 -83 0 -135 -4 -135 -10 0
-5 -13 -10 -30 -10 -16 0 -30 -4 -30 -10 0 -5 -16 -10 -35 -10 -19 0 -35 -4
-35 -10 0 -5 -11 -10 -26 -10 -18 0 -43 18 -85 61 -33 34 -63 59 -65 56 -3 -3
24 -35 60 -71 46 -46 73 -66 91 -66 14 0 25 5 25 10 0 6 16 10 35 10 19 0 35
5 35 10 0 6 14 10 30 10 17 0 30 5 30 10 0 6 52 10 135 10 83 0 135 -4 135
-10 0 -6 -42 -10 -105 -10 -63 0 -105 -4 -105 -10 0 -5 25 -10 55 -10 30 0 55
-4 55 -10 0 -5 -25 -10 -55 -10 -30 0 -55 -4 -55 -10 0 -5 -9 -10 -20 -10 -11
0 -20 -7 -20 -15 0 -8 -7 -15 -15 -15 -20 0 -85 -65 -85 -85 0 -24 -59 -19
-81 7 -11 11 -22 19 -25 15 -12 -11 45 -57 71 -57 26 0 75 39 75 60 0 17 26
40 44 40 9 0 16 5 16 10 0 6 9 10 20 10 11 0 20 7 20 15 0 11 13 15 53 15 41
0 56 4 67 20 12 16 26 20 72 20 56 0 58 1 58 26 0 25 20 54 37 54 5 0 15 9 23
20 8 11 21 20 30 20 9 0 22 9 30 20 8 11 22 20 32 20 10 0 18 7 18 15 0 8 9
15 20 15 11 0 20 5 20 10 0 6 11 10 25 10 14 0 25 5 25 10 0 6 9 10 20 10 11
0 20 5 20 10 0 6 13 10 28 10 16 0 34 8 42 20 8 11 22 20 32 20 11 0 18 7 18
20 0 11 -4 20 -10 20 -5 0 -10 9 -10 20 0 11 -4 20 -10 20 -5 0 -10 6 -10 13
0 7 -9 19 -20 27 -11 8 -20 25 -20 38 0 25 -27 59 -38 48 -3 -4 0 -11 7 -15
11 -7 6 -17 -22 -45 -20 -20 -41 -36 -47 -36 -5 0 -10 -5 -10 -11 0 -5 -27
-37 -60 -69 -33 -32 -60 -66 -60 -74 0 -9 -4 -16 -10 -16 -5 0 -10 -9 -10 -20
0 -11 -4 -20 -10 -20 -5 0 -10 -7 -10 -15 0 -8 -4 -15 -10 -15 -5 0 -10 -9
-10 -20 0 -11 -5 -20 -11 -20 -16 0 -39 -26 -39 -44 0 -9 -2 -16 -5 -16 -12 0
-55 50 -55 62 0 8 -9 20 -20 28 -11 8 -20 23 -20 33 0 11 -13 32 -30 47 -16
15 -30 33 -30 40 0 12 -24 40 -35 40 -8 0 -75 68 -75 76 0 3 -13 19 -30 34
-29 27 -42 80 -20 80 6 0 10 14 10 30 0 17 5 30 10 30 6 0 10 9 10 20 0 11 5
20 10 20 6 0 10 9 10 20 0 19 60 90 75 90 4 0 24 18 45 40 21 22 46 40 54 40
9 0 16 5 16 10 0 6 9 10 20 10 11 0 20 5 20 10 0 6 14 10 30 10 17 0 30 -4 30
-10 0 -5 5 -10 10 -10 14 0 120 -107 120 -121 0 -6 14 -24 30 -39 17 -15 30
-36 30 -45 0 -16 22 -45 36 -45 3 0 15 -10 25 -22 11 -11 22 -19 25 -15 7 7
-41 57 -56 57 -5 0 -10 10 -10 23 0 12 -9 29 -20 37 -11 8 -20 20 -20 27 0 16
-145 163 -160 163 -5 0 -10 7 -10 15 0 10 -10 15 -30 15 -20 0 -30 -5 -30 -15z
m366 -419 c19 -20 18 -26 -6 -26 -11 0 -20 -7 -20 -15 0 -8 -9 -15 -20 -15
-26 0 -25 15 3 45 27 29 25 28 43 11z m54 -75 c0 -11 5 -21 12 -23 21 -7 -38
-58 -67 -58 -14 0 -25 -4 -25 -10 0 -5 -9 -10 -20 -10 -11 0 -20 -4 -20 -10 0
-5 -11 -10 -25 -10 -14 0 -25 -4 -25 -10 0 -5 -12 -10 -26 -10 -23 0 -54 -20
-54 -35 0 -4 -6 -13 -14 -21 -17 -16 -46 -19 -46 -4 0 6 5 10 10 10 6 0 10 7
10 15 0 8 5 15 10 15 6 0 10 9 10 20 0 12 7 20 16 20 19 0 49 28 40 38 -4 3
-11 0 -16 -8 -5 -8 -12 -11 -15 -8 -4 4 14 27 39 52 42 42 49 46 96 46 27 0
50 5 50 10 0 6 14 10 30 10 23 0 30 -5 30 -19z m-1183 -77 c13 -13 14 -17 3
-24 -10 -6 -6 -15 15 -35 20 -21 29 -25 35 -15 7 11 12 10 26 -4 13 -14 15
-22 7 -35 -7 -12 -6 -20 4 -30 8 -7 17 -10 21 -6 3 3 0 10 -8 15 -8 5 -11 12
-8 16 4 3 15 -2 25 -12 13 -12 14 -19 5 -22 -16 -5 -16 -39 1 -45 6 -2 9 -8 5
-12 -7 -7 -118 98 -118 113 0 4 -9 14 -20 22 -22 16 -26 45 -7 54 10 5 10 7 0
12 -13 6 -18 24 -7 24 3 0 13 -7 21 -16z M1140 510 c0 -5 -9 -10 -21 -10 -23
0 -55 -27 -44 -38 4 -4 10 -1 12 6 3 6 16 12 29 12 13 0 24 5 24 10 0 6 27 10
60 10 33 0 60 4 60 10 0 6 -27 10 -60 10 -33 0 -60 -4 -60 -10z M130 365 c0
-8 5 -15 10 -15 6 0 10 7 10 15 0 8 -4 15 -10 15 -5 0 -10 -7 -10 -15z"/>
</g>
</svg>
