<?xml version="1.0" standalone="no"?>
<!DOCTYPE svg PUBLIC "-//W3C//DTD SVG 20010904//EN"
 "http://www.w3.org/TR/2001/REC-SVG-20010904/DTD/svg10.dtd">
<svg version="1.0" xmlns="http://www.w3.org/2000/svg"
 width="94.000000pt" height="99.000000pt" viewBox="0 0 94.000000 99.000000"
 preserveAspectRatio="xMidYMid meet">
<metadata>
Created by potrace 1.16, written by Peter Selinger 2001-2019
</metadata>
<g transform="translate(0.000000,99.000000) scale(0.100000,-0.100000)"
fill="currentColor" stroke="none">
<path d="M580 980 c0 -6 -27 -10 -60 -10 -33 0 -60 -4 -60 -10 0 -5 -18 -10
-40 -10 -29 0 -40 -4 -40 -15 0 -8 -5 -15 -10 -15 -14 0 -80 -66 -80 -81 0 -6
-13 -24 -30 -39 -16 -15 -30 -34 -30 -42 0 -7 -9 -20 -20 -28 -11 -8 -20 -25
-20 -37 0 -13 -4 -23 -10 -23 -5 0 -10 -9 -10 -20 0 -11 -5 -20 -10 -20 -19 0
-140 -129 -140 -150 0 -11 -4 -20 -10 -20 -5 0 -10 -9 -10 -20 0 -11 5 -20 10
-20 6 0 10 -7 10 -16 0 -8 23 -37 50 -64 28 -27 50 -56 50 -65 0 -19 23 -45
39 -45 6 0 11 -7 11 -16 0 -8 18 -33 40 -54 22 -21 40 -44 40 -50 0 -7 14 -25
30 -40 17 -15 30 -31 30 -35 0 -13 29 -35 45 -35 19 0 45 23 45 39 0 6 5 11
10 11 18 0 10 31 -15 55 -13 14 -27 25 -30 25 -11 0 -55 49 -55 61 0 6 -13 24
-30 39 -16 15 -30 36 -30 47 0 10 -9 25 -20 33 -11 8 -20 22 -20 32 0 10 -4
18 -10 18 -5 0 -10 5 -10 10 0 6 9 10 20 10 11 0 20 5 20 10 0 6 12 10 26 10
17 0 39 -14 64 -40 21 -22 41 -40 45 -40 12 0 35 -29 35 -45 0 -17 103 -125
120 -125 6 0 22 11 36 25 l25 26 -30 28 c-17 16 -31 32 -31 35 0 11 -149 156
-160 156 -5 0 -10 9 -10 20 0 11 7 20 15 20 8 0 15 5 15 11 0 6 18 28 40 49
22 21 40 45 40 52 0 7 9 20 20 28 11 8 20 20 20 28 0 17 25 42 42 42 8 0 20
-9 28 -20 8 -11 19 -20 25 -20 6 0 17 -9 25 -19 7 -11 17 -18 22 -15 8 5 -35
54 -47 54 -8 0 -55 47 -55 55 0 4 -22 28 -50 55 -49 48 -60 72 -39 86 8 4 7 9
-2 14 -9 6 -9 12 4 24 11 12 35 16 86 16 41 0 71 4 71 10 0 6 23 10 50 10 54
0 66 -16 34 -47 -13 -14 -17 -14 -24 -2 -5 7 -12 10 -17 6 -4 -5 -1 -12 6 -16
11 -7 6 -17 -22 -45 -20 -20 -44 -36 -52 -36 -9 0 -34 18 -56 41 -35 37 -40
39 -55 25 -14 -14 -10 -21 45 -75 34 -33 61 -65 61 -70 0 -6 5 -11 11 -11 5 0
37 -28 71 -62 45 -46 62 -58 68 -47 5 7 12 10 16 6 4 -3 1 -13 -6 -22 -8 -10
-9 -15 -1 -15 6 0 11 5 11 10 0 6 5 10 10 10 6 0 10 -13 10 -30 0 -42 -23 -39
-71 11 -22 23 -42 39 -45 36 -8 -7 82 -97 96 -97 18 0 40 27 40 50 0 13 -27
48 -70 90 -38 38 -70 73 -70 77 0 5 -9 15 -20 23 -28 20 -25 36 15 76 31 31
37 33 50 20 8 -8 15 -20 15 -26 0 -6 18 -29 40 -50 22 -21 40 -43 40 -49 0 -6
7 -11 15 -11 8 0 15 -7 15 -15 0 -23 46 -65 70 -65 24 0 50 22 50 42 0 8 -9
20 -20 28 -11 8 -20 19 -20 25 0 6 -9 17 -20 25 -11 8 -20 20 -20 28 0 15 -45
62 -60 62 -5 0 -10 9 -10 20 0 13 -7 20 -20 20 -13 0 -20 7 -20 20 0 11 -4 20
-10 20 -5 0 -10 9 -10 20 0 12 -11 32 -25 45 -19 20 -34 25 -75 25 -27 0 -50
-4 -50 -10z m110 -20 c0 -5 -18 -10 -40 -10 -29 0 -40 -4 -40 -15 0 -12 -15
-15 -75 -15 -43 0 -75 -4 -75 -10 0 -5 -7 -10 -16 -10 -18 0 -44 -23 -44 -40
0 -12 -24 -40 -35 -40 -12 0 -55 -50 -55 -65 0 -8 -4 -15 -10 -15 -5 0 -10
-11 -10 -25 0 -18 -5 -25 -20 -25 -12 0 -20 -7 -20 -16 0 -9 -13 -29 -30 -44
-16 -15 -30 -33 -30 -40 0 -12 -24 -40 -35 -40 -12 0 -35 -29 -35 -44 0 -9 -4
-16 -10 -16 -5 0 -10 -5 -10 -10 0 -17 -47 -60 -65 -60 -8 0 -15 9 -15 20 0
11 5 20 10 20 6 0 10 9 10 20 0 18 100 130 115 130 12 0 35 29 35 44 0 9 5 16
10 16 6 0 10 10 10 23 0 12 9 29 20 37 11 8 20 21 20 28 0 8 14 27 30 42 17
15 30 33 30 39 0 19 48 61 70 61 11 0 20 5 20 10 0 6 14 10 30 10 20 0 30 5
30 15 0 12 13 15 60 15 33 0 60 4 60 10 0 6 25 10 55 10 30 0 55 -4 55 -10z
m70 -120 c21 -22 41 -40 45 -40 12 0 35 -28 35 -42 0 -8 9 -20 20 -28 11 -8
20 -19 20 -25 0 -6 9 -17 20 -25 29 -21 26 -50 -6 -50 -29 0 -54 21 -54 44 0
9 -4 16 -10 16 -5 0 -10 7 -10 15 0 8 -5 15 -10 15 -15 0 -80 67 -80 81 0 6
-9 20 -21 30 -18 15 -19 20 -7 33 7 8 14 15 16 16 2 0 21 -18 42 -40z m-320
10 c0 -5 -4 -10 -10 -10 -5 0 -10 5 -10 10 0 6 5 10 10 10 6 0 10 -4 10 -10z
m100 -60 c27 -27 52 -50 55 -50 8 0 35 -27 35 -35 0 -3 23 -29 51 -56 28 -28
49 -52 46 -55 -7 -7 -117 102 -117 116 0 5 -5 10 -10 10 -10 0 -120 105 -120
115 0 13 15 2 60 -45z m-75 -25 c59 -58 67 -82 35 -105 -11 -8 -20 -20 -20
-27 0 -13 -104 -123 -115 -123 -14 0 -35 -30 -35 -49 0 -17 -6 -21 -30 -21
-16 0 -30 -4 -30 -10 0 -5 -9 -10 -20 -10 -11 0 -20 -4 -20 -10 0 -5 -9 -10
-20 -10 -11 0 -20 -4 -20 -10 0 -5 -11 -10 -25 -10 -14 0 -25 -4 -25 -10 0
-16 -70 -12 -86 5 -14 13 -11 19 25 54 23 22 41 44 41 50 0 6 5 11 10 11 6 0
10 9 10 20 0 11 5 20 10 20 14 0 60 46 60 60 0 6 23 33 50 60 28 27 50 53 50
59 0 6 5 11 10 11 6 0 10 9 10 20 0 11 5 20 10 20 6 0 10 9 10 20 0 11 7 20
15 20 8 0 15 5 15 10 0 24 34 6 85 -45z m-152 -357 c4 -10 8 -9 17 2 9 11 13
12 17 3 2 -7 9 -13 14 -13 10 0 139 -126 139 -136 0 -3 14 -19 31 -35 27 -26
29 -30 16 -44 -9 -8 -21 -15 -27 -15 -16 0 -100 87 -100 105 0 15 -42 65 -55
65 -7 0 -75 67 -75 75 0 10 18 5 23 -7z m-123 -66 c0 -10 9 -24 20 -32 11 -8
20 -23 20 -33 0 -11 13 -32 30 -47 17 -15 30 -33 30 -40 0 -7 14 -25 30 -40
26 -24 41 -60 25 -60 -11 0 -55 49 -55 60 0 7 -18 29 -40 50 -22 21 -40 48
-40 59 0 12 -4 21 -10 21 -5 0 -10 7 -10 16 0 18 -23 44 -39 44 -6 0 -11 -4
-11 -10 0 -5 7 -10 15 -10 8 0 15 -9 15 -20 0 -11 5 -20 10 -20 6 0 10 -9 10
-21 0 -11 18 -38 40 -59 22 -21 40 -43 40 -49 0 -14 86 -101 100 -101 5 0 10
5 10 10 0 6 -7 10 -15 10 -8 0 -15 5 -15 10 0 6 11 10 25 10 18 0 25 -5 25
-20 0 -11 -4 -20 -10 -20 -5 0 -10 -7 -10 -15 0 -9 -9 -15 -25 -15 -14 0 -25
5 -25 11 0 6 -13 24 -30 39 -16 15 -30 33 -30 40 0 6 -18 29 -40 50 -22 21
-40 44 -40 50 0 14 -25 40 -39 40 -6 0 -11 10 -11 23 0 12 -9 29 -20 37 -11 8
-20 18 -20 22 0 4 9 8 20 8 11 0 20 5 20 10 0 6 11 10 25 10 17 0 25 -5 25
-18z M710 854 c0 -3 18 -23 40 -44 22 -21 40 -46 40 -54 0 -9 5 -16 11 -16 11
0 39 -25 39 -35 0 -11 51 -57 57 -51 4 3 -4 14 -15 25 -12 10 -22 22 -22 27 0
5 -9 16 -20 24 -11 8 -20 22 -20 32 0 10 -5 18 -11 18 -6 0 -28 18 -49 40 -36
38 -50 47 -50 34z M330 394 c0 -7 27 -34 35 -34 7 0 95 -88 95 -95 0 -11 71
-77 77 -71 3 3 -8 19 -26 35 -17 16 -31 32 -31 35 0 11 -109 116 -120 116 -5
0 -10 5 -10 10 0 6 -4 10 -10 10 -5 0 -10 -3 -10 -6z"/>
</g>
</svg>
