<?xml version="1.0" standalone="no"?>
<!DOCTYPE svg PUBLIC "-//W3C//DTD SVG 20010904//EN"
 "http://www.w3.org/TR/2001/REC-SVG-20010904/DTD/svg10.dtd">
<svg version="1.0" xmlns="http://www.w3.org/2000/svg"
 width="48.000000pt" height="44.000000pt" viewBox="0 0 48.000000 44.000000"
 preserveAspectRatio="xMidYMid meet">
<metadata>
Created by potrace 1.16, written by Peter Selinger 2001-2019
</metadata>
<g transform="translate(0.000000,44.000000) scale(0.100000,-0.100000)"
fill="currentColor" stroke="none">
<path d="M143 425 c-7 -8 -13 -39 -13 -70 0 -46 -4 -60 -25 -80 -13 -14 -31
-25 -40 -25 -22 0 -45 -24 -45 -48 0 -11 -5 -22 -12 -24 -8 -3 -3 -14 14 -31
23 -23 35 -27 88 -27 l60 0 0 -40 c0 -22 5 -40 10 -40 15 0 12 70 -4 86 -9 9
-35 14 -71 14 -39 0 -61 5 -73 17 -12 12 -13 18 -4 21 6 2 12 15 12 28 0 17 5
24 20 24 12 0 36 16 55 35 32 32 35 39 35 95 l0 60 30 0 c17 0 30 -5 30 -10 0
-13 45 -60 57 -60 5 0 15 9 23 20 8 11 22 20 32 20 10 0 18 7 18 15 0 10 10
15 30 15 41 0 40 -32 -1 -71 -27 -26 -29 -30 -16 -44 9 -8 23 -15 31 -15 9 0
16 -4 16 -10 0 -5 9 -10 20 -10 13 0 20 -7 20 -19 0 -11 6 -22 13 -25 10 -5
10 -7 0 -12 -7 -3 -13 -12 -13 -20 0 -11 -16 -14 -70 -14 -63 0 -70 -2 -70
-20 0 -11 -4 -20 -10 -20 -5 0 -10 -13 -10 -30 0 -20 -5 -30 -15 -30 -8 0 -15
-7 -15 -16 0 -20 -24 -44 -44 -44 -9 0 -16 -4 -16 -10 0 -5 14 -10 30 -10 23
0 30 4 30 20 0 11 7 20 15 20 8 0 15 9 15 20 0 11 5 20 10 20 6 0 10 12 10 26
0 39 22 54 80 54 49 0 80 15 80 38 0 6 6 13 13 16 10 5 10 7 0 12 -7 3 -13 12
-13 21 0 19 -24 43 -44 43 -9 0 -16 5 -16 10 0 6 -9 10 -20 10 -27 0 -25 7 10
40 33 31 38 54 16 76 -17 16 -66 19 -66 4 0 -5 -9 -10 -20 -10 -11 0 -20 -5
-20 -11 0 -11 -25 -39 -35 -39 -8 0 -35 27 -35 35 0 4 -6 13 -14 21 -18 18
-57 18 -73 -1z"/>
</g>
</svg>
