<?xml version="1.0" standalone="no"?>
<!DOCTYPE svg PUBLIC "-//W3C//DTD SVG 20010904//EN"
 "http://www.w3.org/TR/2001/REC-SVG-20010904/DTD/svg10.dtd">
<svg version="1.0" xmlns="http://www.w3.org/2000/svg"
 width="113.000000pt" height="50.000000pt" viewBox="0 0 113.000000 50.000000"
 preserveAspectRatio="xMidYMid meet">
<metadata>
Created by potrace 1.16, written by Peter Selinger 2001-2019
</metadata>
<g transform="translate(0.000000,50.000000) scale(0.100000,-0.100000)"
fill="currentColor" stroke="none">
<path d="M940 490 c0 -5 -13 -10 -30 -10 -16 0 -30 -4 -30 -10 0 -6 -28 -10
-65 -10 -37 0 -65 -4 -65 -10 0 -5 -9 -10 -20 -10 -11 0 -20 5 -20 10 0 6 -13
10 -30 10 -16 0 -30 5 -30 10 0 6 -32 10 -75 10 -43 0 -75 -4 -75 -10 0 -5 -7
-10 -16 -10 -20 0 -44 -24 -44 -44 0 -9 -4 -16 -10 -16 -5 0 -10 -9 -10 -20 0
-15 -7 -20 -25 -20 -14 0 -25 -4 -25 -10 0 -6 -27 -10 -60 -10 -47 0 -60 -3
-60 -15 0 -8 -9 -15 -20 -15 -11 0 -20 -4 -20 -10 0 -5 -5 -10 -11 -10 -6 0
-24 -13 -39 -30 -15 -16 -34 -30 -42 -30 -7 0 -20 -9 -28 -20 -8 -11 -20 -20
-28 -20 -18 0 -42 -25 -42 -44 0 -9 -4 -16 -10 -16 -16 0 -12 -99 4 -116 17
-17 166 -20 166 -4 0 6 20 10 45 10 25 0 45 5 45 10 0 6 27 10 60 10 33 0 60
4 60 10 0 6 16 10 35 10 19 0 35 5 35 10 0 6 14 10 30 10 17 0 30 5 30 10 0 6
9 10 20 10 11 0 20 -4 20 -10 0 -5 20 -10 45 -10 25 0 45 5 45 10 0 6 9 10 20
10 11 0 20 7 20 15 0 8 -9 15 -20 15 -11 0 -20 -7 -20 -15 0 -10 -11 -15 -35
-15 -24 0 -35 5 -35 15 0 8 9 15 20 15 11 0 20 5 20 10 0 6 15 10 34 10 19 0
36 6 39 13 2 7 8 8 13 3 5 -5 4 -11 -3 -13 -20 -7 -15 -23 7 -23 12 0 20 7 20
16 0 26 26 44 64 44 20 0 36 5 36 10 0 6 16 10 35 10 19 0 35 5 35 10 0 6 9
10 20 10 11 0 20 5 20 10 0 6 9 10 20 10 11 0 20 5 20 10 0 6 7 10 15 10 18 0
65 43 65 60 0 5 5 10 11 10 16 0 39 26 39 44 0 9 5 16 10 16 18 0 10 31 -15
55 -13 14 -33 25 -45 25 -11 0 -20 5 -20 10 0 6 -22 10 -50 10 -27 0 -50 -4
-50 -10z m100 -20 c0 -5 9 -10 21 -10 22 0 49 -22 49 -40 0 -14 -25 -40 -39
-40 -6 0 -11 -9 -11 -20 0 -11 -4 -20 -10 -20 -5 0 -10 -5 -10 -11 0 -16 -26
-39 -44 -39 -9 0 -16 -4 -16 -10 0 -5 -9 -10 -20 -10 -11 0 -20 -4 -20 -10 0
-5 -9 -10 -20 -10 -11 0 -20 -4 -20 -10 0 -5 -16 -10 -35 -10 -19 0 -35 -4
-35 -10 0 -5 -18 -10 -40 -10 -22 0 -40 -4 -40 -10 0 -5 -18 -10 -40 -10 -22
0 -40 -4 -40 -10 0 -5 -11 -10 -25 -10 -14 0 -25 -4 -25 -10 0 -5 -13 -10 -30
-10 -16 0 -30 -4 -30 -10 0 -5 -13 -10 -30 -10 -20 0 -30 -5 -30 -15 0 -8 -9
-15 -20 -15 -11 0 -20 -4 -20 -10 0 -5 -20 -10 -45 -10 -25 0 -45 -4 -45 -10
0 -5 -18 -10 -40 -10 -22 0 -40 5 -40 10 0 6 14 10 30 10 17 0 30 5 30 10 0 6
16 10 35 10 19 0 35 5 35 11 0 21 29 39 64 39 20 0 36 5 36 10 0 6 18 10 40
10 22 0 40 5 40 10 0 6 16 10 35 10 19 0 35 5 35 10 0 6 18 10 40 10 22 0 40
5 40 10 0 6 14 10 30 10 17 0 30 5 30 10 0 6 11 10 25 10 14 0 25 5 25 10 0 6
7 10 15 10 18 0 65 43 65 60 0 5 7 10 15 10 18 0 65 44 65 60 0 26 -30 40 -84
40 -31 0 -56 -4 -56 -10 0 -6 27 -10 60 -10 48 0 60 -3 60 -16 0 -18 -23 -44
-40 -44 -12 0 -40 -24 -40 -35 0 -12 -29 -35 -44 -35 -9 0 -16 -4 -16 -10 0
-5 -11 -10 -25 -10 -14 0 -25 -4 -25 -10 0 -5 -13 -10 -30 -10 -16 0 -30 -4
-30 -10 0 -5 -18 -10 -40 -10 -22 0 -40 -4 -40 -10 0 -5 -16 -10 -35 -10 -19
0 -35 -4 -35 -10 0 -5 -18 -10 -40 -10 -22 0 -40 -4 -40 -10 0 -5 -17 -10 -38
-10 -26 0 -42 -6 -52 -20 -9 -13 -26 -20 -47 -20 -23 0 -33 -5 -33 -15 0 -10
-10 -15 -30 -15 -16 0 -30 -4 -30 -10 0 -6 -38 -10 -95 -10 -89 0 -95 1 -95
20 0 27 83 110 110 110 11 0 20 5 20 10 0 26 -46 5 -95 -45 -42 -42 -55 -62
-55 -85 l0 -30 95 0 c57 0 95 -4 95 -10 0 -5 -20 -10 -45 -10 -25 0 -45 -4
-45 -10 0 -6 -33 -10 -80 -10 l-80 0 0 55 c0 30 5 55 10 55 6 0 10 9 10 20 0
13 7 20 18 20 10 0 24 9 32 20 8 11 21 20 28 20 8 0 27 14 42 30 15 17 33 30
39 30 6 0 11 5 11 10 0 6 9 10 20 10 11 0 20 5 20 10 0 6 27 10 60 10 33 0 60
-3 60 -6 0 -16 -33 -34 -64 -34 -20 0 -36 -4 -36 -9 0 -5 -10 -11 -22 -14 -22
-3 -22 -4 -4 -12 13 -6 21 -5 24 3 5 15 42 16 42 2 0 -5 -7 -10 -15 -10 -25 0
-65 -46 -65 -75 0 -21 5 -25 30 -25 17 0 30 5 30 10 0 6 14 10 30 10 17 0 30
5 30 10 0 6 9 10 20 10 11 0 20 5 20 10 0 6 16 10 35 10 19 0 35 5 35 10 0 6
9 10 20 10 11 0 20 5 20 10 0 6 9 10 20 10 11 0 20 5 20 10 0 6 14 10 30 10
17 0 30 5 30 10 0 6 16 10 35 10 19 0 35 5 35 10 0 6 18 10 40 10 22 0 40 5
40 10 0 6 18 10 40 10 29 0 40 4 40 15 0 9 9 15 21 15 11 0 27 7 35 15 24 24
-5 45 -61 45 -41 0 -75 16 -75 34 0 3 29 6 65 6 37 0 65 4 65 10 0 6 14 10 30
10 17 0 30 5 30 10 0 6 23 10 50 10 28 0 50 -4 50 -10z m-390 -20 c0 -5 14
-10 30 -10 17 0 30 -4 30 -10 0 -5 7 -10 16 -10 23 0 44 -25 44 -54 0 -19 -5
-26 -20 -26 -11 0 -20 -7 -20 -15 0 -10 -10 -15 -30 -15 -16 0 -30 -4 -30 -10
0 -5 -16 -10 -35 -10 -19 0 -35 -4 -35 -10 0 -5 -17 -10 -38 -10 -26 0 -42 -6
-52 -20 -8 -11 -22 -20 -32 -20 -10 0 -18 -4 -18 -10 0 -5 -9 -10 -20 -10 -16
0 -20 7 -20 30 0 20 -5 30 -15 30 -10 0 -15 11 -15 35 0 19 5 35 11 35 16 0
39 26 39 44 0 9 5 16 10 16 6 0 10 9 10 20 0 13 7 20 20 20 11 0 20 5 20 10 0
6 32 10 75 10 43 0 75 -4 75 -10z m230 -80 c0 -5 -11 -10 -25 -10 -14 0 -25
-4 -25 -10 0 -5 -9 -10 -20 -10 -13 0 -20 7 -20 20 0 17 7 20 45 20 25 0 45
-4 45 -10z m-490 -140 c0 -33 -3 -40 -20 -40 -11 0 -20 -4 -20 -10 0 -5 -13
-10 -30 -10 -16 0 -30 -4 -30 -10 0 -5 -9 -10 -20 -10 -11 0 -20 2 -20 5 0 14
107 114 123 114 13 1 17 -7 17 -39z"/>
</g>
</svg>
