<?xml version="1.0" standalone="no"?>
<!DOCTYPE svg PUBLIC "-//W3C//DTD SVG 20010904//EN"
 "http://www.w3.org/TR/2001/REC-SVG-20010904/DTD/svg10.dtd">
<svg version="1.0" xmlns="http://www.w3.org/2000/svg"
 width="40.000000pt" height="42.000000pt" viewBox="0 0 40.000000 42.000000"
 preserveAspectRatio="xMidYMid meet">
<metadata>
Created by potrace 1.16, written by Peter Selinger 2001-2019
</metadata>
<g transform="translate(0.000000,42.000000) scale(0.100000,-0.100000)"
fill="currentColor" stroke="none">
<path d="M140 410 c0 -5 -11 -10 -25 -10 -31 0 -75 -41 -75 -70 0 -11 -4 -20
-10 -20 -5 0 -10 -9 -10 -20 0 -11 -4 -20 -10 -20 -6 0 -10 -30 -10 -70 l0
-70 55 -55 c42 -42 62 -55 85 -55 16 0 30 -4 30 -10 0 -5 14 -10 30 -10 17 0
30 5 30 10 0 6 11 10 25 10 31 0 115 80 115 110 0 11 7 20 15 20 12 0 15 14
15 70 0 56 -3 70 -15 70 -8 0 -15 9 -15 20 0 11 -4 20 -10 20 -5 0 -10 5 -10
10 0 17 -47 60 -65 60 -8 0 -15 5 -15 10 0 6 -28 10 -65 10 -37 0 -65 -4 -65
-10z m130 -20 c0 -5 7 -10 16 -10 18 0 44 -23 44 -39 0 -6 5 -11 10 -11 6 0
10 -9 10 -20 0 -11 5 -20 10 -20 6 0 10 -30 10 -70 0 -40 -4 -70 -10 -70 -5 0
-10 -9 -10 -20 0 -30 -64 -90 -95 -90 -14 0 -25 -4 -25 -10 0 -5 -13 -10 -30
-10 -16 0 -30 5 -30 10 0 6 -14 10 -30 10 -23 0 -42 11 -75 45 -45 44 -45 45
-45 115 0 40 4 70 10 70 6 0 10 9 10 20 0 11 5 20 10 20 6 0 10 9 10 21 0 28
23 49 54 49 14 0 26 5 26 10 0 6 28 10 65 10 37 0 65 -4 65 -10z"/>
</g>
</svg>
