<?xml version="1.0" standalone="no"?>
<!DOCTYPE svg PUBLIC "-//W3C//DTD SVG 20010904//EN"
 "http://www.w3.org/TR/2001/REC-SVG-20010904/DTD/svg10.dtd">
<svg version="1.0" xmlns="http://www.w3.org/2000/svg"
 width="50.000000pt" height="57.000000pt" viewBox="0 0 50.000000 57.000000"
 preserveAspectRatio="xMidYMid meet">
<metadata>
Created by potrace 1.16, written by Peter Selinger 2001-2019
</metadata>
<g transform="translate(0.000000,57.000000) scale(0.100000,-0.100000)"
fill="currentColor" stroke="none">
<path d="M370 560 c0 -5 -13 -10 -30 -10 -16 0 -30 -4 -30 -10 0 -5 -7 -10
-16 -10 -18 0 -44 -23 -44 -39 0 -6 -9 -11 -20 -11 -21 0 -150 -121 -150 -141
0 -6 -13 -24 -30 -39 -24 -22 -30 -36 -30 -69 0 -23 -4 -41 -10 -41 -16 0 -13
-159 4 -176 21 -20 59 -17 76 6 10 14 26 20 52 20 27 0 38 4 38 15 0 8 9 15
21 15 11 0 42 22 69 50 27 28 54 50 60 50 19 0 80 68 80 90 0 11 5 20 11 20
21 0 39 29 39 64 0 20 5 36 10 36 6 0 10 14 10 30 0 17 5 30 10 30 6 0 10 28
10 65 l0 65 -65 0 c-37 0 -65 -4 -65 -10z m110 -65 c0 -30 -4 -55 -10 -55 -5
0 -10 -13 -10 -30 0 -16 -4 -30 -10 -30 -5 0 -10 -18 -10 -40 0 -29 -4 -40
-15 -40 -8 0 -15 -4 -15 -10 0 -5 -4 -10 -10 -10 -5 0 -10 20 -10 45 0 35 -6
52 -25 70 -13 14 -31 25 -40 25 -8 0 -15 5 -15 10 0 6 -25 10 -55 10 -30 0
-55 5 -55 10 0 6 9 10 21 10 22 0 49 22 49 39 0 6 9 11 20 11 11 0 20 5 20 10
0 6 14 10 30 10 17 0 30 5 30 10 0 6 25 10 55 10 l55 0 0 -55z m-170 -85 c0
-5 7 -10 16 -10 33 0 44 -26 44 -105 0 -77 -11 -105 -42 -105 -8 0 -20 -9 -28
-20 -12 -16 -26 -20 -73 -20 -53 0 -61 3 -92 35 -32 32 -35 39 -35 95 0 33 4
60 10 60 6 0 10 7 10 15 0 9 10 27 23 40 19 21 31 24 95 24 42 1 72 -3 72 -9z
m-230 -155 c0 -25 5 -45 10 -45 6 0 10 -7 10 -16 0 -20 24 -44 44 -44 9 0 16
-4 16 -10 0 -5 20 -10 45 -10 25 0 45 -3 45 -6 0 -13 -30 -34 -49 -34 -12 0
-21 -4 -21 -10 0 -5 -18 -10 -40 -10 -22 0 -40 -5 -40 -11 0 -19 -28 -39 -54
-39 -26 0 -26 0 -26 85 0 50 4 85 10 85 6 0 10 18 10 40 0 38 15 69 33 70 4 0
7 -20 7 -45z"/>
</g>
</svg>
