<?xml version="1.0" standalone="no"?>
<!DOCTYPE svg PUBLIC "-//W3C//DTD SVG 20010904//EN"
 "http://www.w3.org/TR/2001/REC-SVG-20010904/DTD/svg10.dtd">
<svg version="1.0" xmlns="http://www.w3.org/2000/svg"
 width="48.000000pt" height="44.000000pt" viewBox="0 0 48.000000 44.000000"
 preserveAspectRatio="xMidYMid meet">
<metadata>
Created by potrace 1.16, written by Peter Selinger 2001-2019
</metadata>
<g transform="translate(0.000000,44.000000) scale(0.100000,-0.100000)"
fill="currentColor" stroke="none">
<path d="M120 420 c-8 -11 -22 -20 -32 -20 -10 0 -18 -4 -18 -10 0 -5 -9 -10
-21 -10 -11 0 -27 -6 -35 -14 -16 -16 -19 -96 -4 -96 6 0 10 -13 10 -30 0 -16
5 -30 10 -30 6 0 10 -9 10 -20 0 -11 7 -20 15 -20 11 0 15 -11 15 -40 0 -22 5
-40 10 -40 6 0 10 -9 10 -20 0 -34 44 -70 85 -70 19 0 35 5 35 10 0 6 9 10 20
10 11 0 20 5 20 10 0 6 16 10 35 10 19 0 35 5 35 11 0 16 26 39 44 39 9 0 16
5 16 10 0 6 9 10 20 10 11 0 20 5 20 10 0 6 7 10 16 10 8 0 22 6 30 14 16 16
19 86 4 86 -5 0 -10 14 -10 30 0 33 -38 80 -65 80 -8 0 -15 5 -15 10 0 6 -9
10 -20 10 -11 0 -20 5 -20 10 0 6 -9 10 -20 10 -11 0 -20 5 -20 10 0 6 -11 10
-25 10 -14 0 -25 5 -25 10 0 6 -9 10 -20 10 -11 0 -20 5 -20 10 0 6 -17 10
-38 10 -26 0 -42 -6 -52 -20z m90 -10 c0 -5 9 -10 20 -10 11 0 20 -4 20 -10 0
-5 11 -10 25 -10 24 0 25 -2 25 -65 0 -59 -2 -65 -21 -65 -22 0 -49 22 -49 39
0 6 -13 11 -30 11 -20 0 -30 -5 -30 -15 0 -10 10 -15 28 -15 16 0 34 -8 42
-20 8 -11 25 -20 37 -20 13 0 23 -4 23 -10 0 -5 -5 -10 -10 -10 -17 0 -60 -47
-60 -65 0 -8 -9 -15 -20 -15 -11 0 -20 -4 -20 -10 0 -5 -4 -10 -10 -10 -5 0
-10 23 -10 50 0 28 -4 50 -10 50 -5 0 -10 20 -10 45 0 25 5 45 10 45 6 0 10 7
10 16 0 9 10 25 22 35 11 11 18 22 15 25 -4 4 -21 -8 -38 -27 -20 -21 -34 -29
-36 -21 -3 6 -11 12 -20 12 -14 0 -43 23 -43 34 0 3 9 6 20 6 11 0 20 5 20 10
0 6 9 10 20 10 11 0 20 5 20 10 0 6 14 10 30 10 17 0 30 -4 30 -10z m-130 -70
c8 -11 22 -20 32 -20 15 0 18 -9 18 -55 0 -30 5 -55 10 -55 6 0 10 -30 10 -70
0 -40 -4 -70 -10 -70 -5 0 -10 -7 -10 -15 0 -8 5 -15 10 -15 6 0 10 5 10 10 0
14 46 60 60 60 15 0 40 25 40 40 0 14 25 40 39 40 6 0 11 5 11 10 0 18 35 11
50 -10 8 -11 20 -20 28 -20 13 0 42 -23 42 -34 0 -3 -9 -6 -20 -6 -11 0 -20
-4 -20 -10 0 -5 -8 -10 -18 -10 -10 0 -24 -9 -32 -20 -9 -13 -26 -20 -47 -20
-23 0 -33 -5 -33 -15 0 -8 -9 -15 -20 -15 -11 0 -20 -4 -20 -10 0 -15 -70 -12
-86 4 -8 8 -14 24 -14 35 0 12 -4 21 -10 21 -5 0 -10 18 -10 40 0 22 -4 40
-10 40 -5 0 -10 9 -10 20 0 11 -7 20 -15 20 -10 0 -15 10 -15 30 0 17 -4 30
-10 30 -5 0 -10 20 -10 45 0 40 2 45 23 45 12 0 29 -9 37 -20z m260 10 c0 -5
9 -10 20 -10 11 0 20 -4 20 -10 0 -5 7 -10 16 -10 25 0 44 -26 44 -59 0 -17 5
-31 10 -31 6 0 10 -18 10 -40 0 -22 -4 -40 -10 -40 -5 0 -10 5 -10 10 0 6 -8
10 -18 10 -10 0 -24 9 -32 20 -8 11 -20 20 -28 20 -29 0 -42 28 -42 89 0 34 4
61 10 61 6 0 10 -4 10 -10z"/>
</g>
</svg>
